<svg width="484" height="120" viewBox="0 0 484 120" fill="none" xmlns="http://www.w3.org/2000/svg">
<path d="M46.3364 119.158C42.343 106.244 -7.20692 115.52 0.893251 65.7496C15.8055 81.0708 51.0055 69.0745 51.2723 113.941C46.469 92.2919 17.1041 94.7627 7.97624 81.9098C14.9588 97.615 41.7976 93.3341 46.3364 119.158Z" fill="#5DA245"/>
<path d="M56.2093 119.158C60.2034 106.244 109.753 115.52 101.653 65.7496C86.7409 81.0708 51.5403 69.0745 51.2734 113.941C56.0768 92.2919 85.4417 94.7627 94.5696 81.9098C87.587 97.615 60.7482 93.3341 56.2093 119.158Z" fill="#5DA245"/>
<path fill-rule="evenodd" clip-rule="evenodd" d="M51.2702 7.62939e-06C48.8119 7.62939e-06 46.819 2.05727 46.819 4.59492C46.819 7.13258 48.8119 9.18982 51.2702 9.19102C53.7285 9.18982 55.722 7.13318 55.722 4.59492C55.722 2.05727 53.7291 0.000610352 51.2702 7.62939e-06ZM51.2702 12.4779C47.5576 12.4779 44.5487 15.5846 44.5487 19.417C44.5487 22.2548 46.1988 24.6948 48.5625 25.7702H48.5614C50.3932 27.4266 50.3937 30.7611 48.5614 32.4175H48.5625C46.9457 33.3837 45.8578 35.189 45.8578 37.2559C45.8578 40.3421 48.2811 42.8436 51.2702 42.8436C54.2599 42.8436 56.6832 40.3421 56.6832 37.2559C56.6832 35.1884 55.5953 33.3837 53.9784 32.4175H53.9796C52.1467 30.7605 52.1473 27.4266 53.9796 25.7696H53.9779C56.3416 24.6948 57.9923 22.2548 57.9923 19.417C57.9923 15.5846 54.9828 12.4779 51.2702 12.4779ZM35.2579 42.3523C33.7099 41.3987 32.6728 39.6531 32.6728 37.6567C32.6728 34.6387 35.0436 32.1921 37.9667 32.1921C40.8904 32.1921 43.2605 34.6393 43.2605 37.6567C43.2605 39.6531 42.2235 41.3987 40.6749 42.3523H40.6761C38.8443 46.9936 38.8431 56.3365 40.6761 60.9809H40.6743C42.2229 61.9345 43.2611 63.6807 43.2611 65.6764C43.2611 68.6945 40.8904 71.1417 37.9667 71.1417C35.0436 71.1417 32.6728 68.6945 32.6728 65.677C32.6728 63.6807 33.7105 61.9338 35.259 60.9809H35.2579C37.0908 56.3371 37.0896 46.9936 35.2579 42.3523ZM51.2702 80.05C47.6236 80.05 44.6678 76.9988 44.6678 73.2346C44.6678 70.7132 45.995 68.5113 47.967 67.3328H47.9652C50.201 65.2617 50.2005 61.0948 47.9652 59.0249H47.9664C45.995 57.8459 44.6678 55.6446 44.6678 53.1238C44.6678 49.3589 47.6236 46.3071 51.2702 46.3071C54.9174 46.3071 57.8726 49.3589 57.8726 53.1232C57.8726 55.6446 56.5459 57.8459 54.5746 59.0249H54.5758C52.34 61.0948 52.3394 65.2617 54.5758 67.3328H54.5746C56.5459 68.5113 57.8726 70.7132 57.8726 73.2346C57.8726 76.9988 54.9174 80.05 51.2702 80.05ZM37.4032 19.0945C40.3263 19.0945 42.6965 21.5417 42.6965 24.5598C42.6965 27.5773 40.3263 30.0245 37.4032 30.0245C34.4795 30.0245 32.1094 27.5773 32.1094 24.5598C32.1094 21.5417 34.4795 19.0951 37.4032 19.0951M65.1384 19.0945C62.2147 19.0945 59.8445 21.5417 59.8445 24.5598C59.8445 27.5773 62.2152 30.0245 65.1384 30.0245C68.0621 30.0245 70.4322 27.5773 70.4322 24.5598C70.4322 21.5417 68.0615 19.0951 65.1384 19.0951" fill="#01669C"/>
<path fill-rule="evenodd" clip-rule="evenodd" d="M28.6019 46.2019C31.5256 46.2019 33.8963 48.6492 33.8963 51.6667C33.8963 54.6841 31.5256 57.1313 28.6019 57.1313C25.6787 57.1313 23.3086 54.6841 23.3086 51.6667C23.3086 48.6486 25.6793 46.2019 28.6019 46.2019ZM73.9376 46.2019C71.0139 46.2019 68.6438 48.6492 68.6438 51.6667C68.6438 54.6841 71.0139 57.1313 73.9376 57.1313C76.8613 57.1313 79.2315 54.6841 79.2315 51.6667C79.2315 48.6486 76.8607 46.2019 73.9376 46.2019Z" fill="#01669C"/>
<path fill-rule="evenodd" clip-rule="evenodd" d="M67.2845 42.3522H67.2834C68.8313 41.3986 69.8689 39.653 69.8689 37.6566C69.8689 34.6385 67.4988 32.1919 64.5751 32.1919C61.652 32.1919 59.2812 34.6391 59.2812 37.6566C59.2812 39.653 60.3189 41.3986 61.8669 42.3522H61.8663C63.698 46.9935 63.6986 56.3364 61.8663 60.9807H61.8675C60.3189 61.9343 59.2819 63.6805 59.2819 65.6763C59.2819 68.6944 61.652 71.1416 64.5751 71.1416C67.4988 71.1416 69.8689 68.6944 69.8689 65.6769C69.8689 63.6805 68.8313 61.9337 67.2827 60.9807H67.2845C65.4516 56.337 65.4528 46.9935 67.2845 42.3522Z" fill="#01669C"/>
<path d="M124.046 55L137.046 20H144.496L157.546 55H149.646L146.946 47.85H133.996L131.346 55H124.046ZM136.296 41.65H144.696L140.496 29.5L136.296 41.65ZM162.069 55V20H169.519V48.8H185.519V55H162.069ZM191.084 55V20H198.534V55H191.084ZM207.088 55V20H231.038V26.2H214.538V35H229.538V41H214.538V55H207.088ZM127.596 115V80H151.546V86.2H135.046V95H150.046V101H135.046V115H127.596ZM157.332 115V80H181.732V86.2H164.832V94H180.232V100H164.832V108.8H181.732V115H157.332ZM188.338 115V80H202.488C205.421 80 207.855 80.4667 209.788 81.4C211.755 82.3333 213.238 83.65 214.238 85.35C215.238 87.0167 215.738 88.9833 215.738 91.25C215.738 93.65 215.121 95.75 213.888 97.55C212.655 99.3167 210.771 100.6 208.238 101.4L216.738 115H208.088L200.738 102.2H195.788V115H188.338ZM195.788 96.3H201.038C203.805 96.3 205.705 95.8833 206.738 95.05C207.771 94.1833 208.288 92.9167 208.288 91.25C208.288 89.5833 207.771 88.3333 206.738 87.5C205.705 86.6333 203.805 86.2 201.038 86.2H195.788V96.3ZM230.571 115V86.2H219.321V80H249.271V86.2H238.021V115H230.571ZM254.805 115V80H262.255V115H254.805ZM285.009 115.6C281.975 115.6 279.259 115 276.859 113.8C274.492 112.567 272.625 110.65 271.259 108.05C269.925 105.417 269.259 101.983 269.259 97.75V96.75C269.259 93.6833 269.659 91.0667 270.459 88.9C271.259 86.7 272.375 84.9 273.809 83.5C275.275 82.1 276.959 81.0667 278.859 80.4C280.759 79.7333 282.809 79.4 285.009 79.4C286.975 79.4 288.809 79.65 290.509 80.15C292.242 80.6167 293.775 81.3333 295.109 82.3C296.442 83.2667 297.509 84.5167 298.309 86.05C299.142 87.5833 299.625 89.3833 299.759 91.45H291.959C291.592 89.4833 290.792 88.0333 289.559 87.1C288.325 86.1667 286.809 85.7 285.009 85.7C283.609 85.7 282.309 86.05 281.109 86.75C279.909 87.4167 278.925 88.55 278.159 90.15C277.425 91.75 277.059 93.95 277.059 96.75V97.75C277.059 99.95 277.292 101.8 277.759 103.3C278.225 104.767 278.842 105.95 279.609 106.85C280.375 107.717 281.225 108.35 282.159 108.75C283.092 109.117 284.042 109.3 285.009 109.3C286.909 109.3 288.475 108.817 289.709 107.85C290.942 106.85 291.692 105.417 291.959 103.55H299.759C299.592 105.717 299.109 107.583 298.309 109.15C297.509 110.683 296.459 111.933 295.159 112.9C293.859 113.833 292.342 114.517 290.609 114.95C288.875 115.383 287.009 115.6 285.009 115.6ZM320.72 115.6C318.52 115.6 316.436 115.267 314.47 114.6C312.503 113.933 310.736 112.9 309.17 111.5C307.636 110.067 306.42 108.217 305.52 105.95C304.653 103.683 304.22 100.95 304.22 97.75V96.75C304.22 93.6833 304.653 91.0667 305.52 88.9C306.42 86.7 307.636 84.9 309.17 83.5C310.736 82.1 312.503 81.0667 314.47 80.4C316.436 79.7333 318.52 79.4 320.72 79.4C322.92 79.4 325.003 79.7333 326.97 80.4C328.936 81.0667 330.686 82.1 332.22 83.5C333.786 84.9 335.003 86.7 335.87 88.9C336.77 91.0667 337.22 93.6833 337.22 96.75V97.75C337.22 100.95 336.77 103.683 335.87 105.95C335.003 108.217 333.786 110.067 332.22 111.5C330.686 112.9 328.936 113.933 326.97 114.6C325.003 115.267 322.92 115.6 320.72 115.6ZM320.72 109.3C322.253 109.3 323.67 108.95 324.97 108.25C326.303 107.517 327.37 106.317 328.17 104.65C329.003 102.95 329.42 100.65 329.42 97.75V96.75C329.42 94.0167 329.003 91.85 328.17 90.25C327.37 88.6167 326.303 87.45 324.97 86.75C323.67 86.05 322.253 85.7 320.72 85.7C319.22 85.7 317.803 86.05 316.47 86.75C315.136 87.45 314.053 88.6167 313.22 90.25C312.42 91.85 312.02 94.0167 312.02 96.75V97.75C312.02 100.65 312.42 102.95 313.22 104.65C314.053 106.317 315.136 107.517 316.47 108.25C317.803 108.95 319.22 109.3 320.72 109.3ZM343.709 115V80H357.859C360.793 80 363.226 80.4667 365.159 81.4C367.126 82.3333 368.609 83.65 369.609 85.35C370.609 87.0167 371.109 88.9833 371.109 91.25C371.109 93.65 370.493 95.75 369.259 97.55C368.026 99.3167 366.143 100.6 363.609 101.4L372.109 115H363.459L356.109 102.2H351.159V115H343.709ZM351.159 96.3H356.409C359.176 96.3 361.076 95.8833 362.109 95.05C363.143 94.1833 363.659 92.9167 363.659 91.25C363.659 89.5833 363.143 88.3333 362.109 87.5C361.076 86.6333 359.176 86.2 356.409 86.2H351.159V96.3ZM378.231 115V80H402.631V86.2H385.731V94H401.131V100H385.731V108.8H402.631V115H378.231Z" fill="black"/>
</svg>
