<svg width="60" height="60" viewBox="0 0 60 60" fill="none" xmlns="http://www.w3.org/2000/svg">
<path d="M25.9798 25.9805C24.9096 27.0451 24.3054 28.4909 24.2998 30.0005C24.2998 31.5122 24.9003 32.962 25.9693 34.031C27.0383 35.0999 28.4881 35.7005 29.9998 35.7005C31.5094 35.6949 32.9551 35.0907 34.0198 34.0205" stroke="#54B458" stroke-width="2.75" stroke-linecap="round" stroke-linejoin="round"/>
<path d="M30.0004 12.9004C26.6183 12.9004 23.3122 13.9033 20.5001 15.7823C17.6881 17.6612 15.4963 20.3319 14.2021 23.4565C12.9078 26.5811 12.5692 30.0194 13.229 33.3364C13.8888 36.6535 15.5174 39.7004 17.9089 42.0919C20.3004 44.4834 23.3473 46.112 26.6644 46.7718C29.9814 47.4316 33.4197 47.093 36.5443 45.7987C39.6689 44.5045 42.3396 42.3127 44.2185 39.5006C46.0975 36.6886 47.1004 33.3825 47.1004 30.0004" stroke="#54B458" stroke-width="2.75" stroke-linecap="round" stroke-linejoin="round"/>
<path d="M30 1.5C24.3632 1.5 18.8531 3.1715 14.1663 6.30312C9.47946 9.43474 5.82654 13.8858 3.66945 19.0935C1.51235 24.3012 0.947954 30.0316 2.04763 35.5601C3.14731 41.0885 5.86167 46.1667 9.84747 50.1525C13.8333 54.1383 18.9115 56.8527 24.4399 57.9524C29.9684 59.0521 35.6988 58.4877 40.9065 56.3306C46.1142 54.1735 50.5653 50.5206 53.6969 45.8338C56.8285 41.147 58.5 35.6368 58.5 30M40.575 19.428L32.85 27.15" stroke="#54B458" stroke-width="2.75" stroke-linecap="round" stroke-linejoin="round"/>
<path d="M56.8197 11.532L47.0997 12.9L48.4677 3.18004C48.4777 3.06714 48.4539 2.95381 48.3992 2.85454C48.3445 2.75526 48.2614 2.67454 48.1606 2.62269C48.0598 2.57085 47.9459 2.55023 47.8333 2.56347C47.7208 2.57672 47.6147 2.62322 47.5287 2.69704L41.0847 9.10804C40.4228 9.7747 39.936 10.5946 39.6675 11.4949C39.399 12.3951 39.3571 13.3477 39.5457 14.268L40.5717 19.428L45.7317 20.451C46.652 20.6396 47.6046 20.5978 48.5049 20.3293C49.4051 20.0608 50.225 19.5739 50.8917 18.912L57.2997 12.471C57.3738 12.3848 57.4204 12.2785 57.4336 12.1656C57.4467 12.0527 57.4259 11.9384 57.3736 11.8375C57.3214 11.7366 57.2402 11.6535 57.1404 11.5991C57.0406 11.5447 56.9268 11.5213 56.8137 11.532" stroke="#54B458" stroke-width="2.75" stroke-linecap="round" stroke-linejoin="round"/>
</svg>
