<svg width="64" height="64" viewBox="0 0 64 64" fill="none" xmlns="http://www.w3.org/2000/svg">
<path d="M62 32C62 15.431 48.569 2 32 2C15.431 2 2 15.431 2 32C2 48.569 15.431 62 32 62C48.569 62 62 48.569 62 32Z" stroke="#54B458" stroke-width="2.75" stroke-linecap="round" stroke-linejoin="round"/>
<path d="M56 13.097C53.195 13.298 49.604 14.387 47.114 17.609C42.614 23.429 38.117 23.918 35.117 21.977C30.617 19.067 34.4 14.348 29.12 11.786C25.679 10.115 25.199 5.57 27.116 2M2 29C4.289 30.986 7.49 32.804 11.267 32.804C19.067 32.804 20.627 34.295 20.627 40.256C20.627 46.217 20.627 46.217 22.187 50.687C23.201 53.597 23.555 56.501 21.533 59M62 36.356C59.339 34.826 56 34.193 52.619 36.62C46.154 41.27 41.693 37.418 39.686 41.267C36.731 46.931 47.288 48.71 38 62" stroke="#54B458" stroke-width="2.75" stroke-linecap="round" stroke-linejoin="round"/>
</svg>
