<svg width="50" height="50" viewBox="0 0 50 50" fill="none" xmlns="http://www.w3.org/2000/svg">
<path d="M37.4997 38.5413C36.6709 38.5413 35.876 38.2121 35.29 37.626C34.7039 37.04 34.3747 36.2451 34.3747 35.4163C34.3747 34.5875 34.7039 33.7927 35.29 33.2066C35.876 32.6206 36.6709 32.2913 37.4997 32.2913C38.3285 32.2913 39.1233 32.6206 39.7094 33.2066C40.2954 33.7927 40.6247 34.5875 40.6247 35.4163C40.6247 36.2451 40.2954 37.04 39.7094 37.626C39.1233 38.2121 38.3285 38.5413 37.4997 38.5413ZM40.6247 19.7913L44.708 24.9997H35.4163V19.7913M12.4997 38.5413C11.6709 38.5413 10.876 38.2121 10.29 37.626C9.70391 37.04 9.37467 36.2451 9.37467 35.4163C9.37467 34.5875 9.70391 33.7927 10.29 33.2066C10.876 32.6206 11.6709 32.2913 12.4997 32.2913C13.3285 32.2913 14.1233 32.6206 14.7094 33.2066C15.2954 33.7927 15.6247 34.5875 15.6247 35.4163C15.6247 36.2451 15.2954 37.04 14.7094 37.626C14.1233 38.2121 13.3285 38.5413 12.4997 38.5413ZM41.6663 16.6663H35.4163V8.33301H6.24967C3.93717 8.33301 2.08301 10.1872 2.08301 12.4997V35.4163H6.24967C6.24967 37.0739 6.90815 38.6637 8.08026 39.8358C9.25236 41.0079 10.8421 41.6663 12.4997 41.6663C14.1573 41.6663 15.747 41.0079 16.9191 39.8358C18.0912 38.6637 18.7497 37.0739 18.7497 35.4163H31.2497C31.2497 37.0739 31.9082 38.6637 33.0803 39.8358C34.2524 41.0079 35.8421 41.6663 37.4997 41.6663C39.1573 41.6663 40.747 41.0079 41.9191 39.8358C43.0912 38.6637 43.7497 37.0739 43.7497 35.4163H47.9163V24.9997L41.6663 16.6663Z" fill="white"/>
</svg>
