<svg width="42" height="34" viewBox="0 0 42 34" fill="none" xmlns="http://www.w3.org/2000/svg">
<path d="M0.166992 33.6663V29.4997H12.1462C11.3823 26.5483 9.93296 24.0052 7.79824 21.8705C5.66352 19.7358 3.11977 18.2858 0.166992 17.5205C0.861437 17.3469 1.54755 17.217 2.22533 17.1309C2.9031 17.0448 3.60588 17.0011 4.33366 16.9997C8.98644 16.9997 12.9274 18.6143 16.1566 21.8434C19.3857 25.0726 21.0003 29.0136 21.0003 33.6663H0.166992ZM25.167 33.6663C25.167 32.208 25.0107 30.7587 24.6982 29.3184C24.3857 27.8781 23.9344 26.4976 23.3441 25.1768C24.8024 22.7115 26.7906 20.7323 29.3087 19.2393C31.8267 17.7462 34.6128 16.9997 37.667 16.9997C38.3962 16.9997 39.0996 17.0434 39.7774 17.1309C40.4552 17.2184 41.1406 17.3483 41.8337 17.5205C38.8823 18.2844 36.3475 19.7344 34.2295 21.8705C32.1114 24.0066 30.6531 26.5497 29.8545 29.4997H41.8337V33.6663H25.167ZM21.0003 21.2184C21.0003 18.9615 21.417 16.8434 22.2503 14.8643C23.0837 12.8851 24.2295 11.14 25.6878 9.62884C27.1462 8.11773 28.8566 6.91148 30.8191 6.01009C32.7816 5.1087 34.8732 4.62259 37.0941 4.55176C35.1496 5.76704 33.4482 7.26009 31.9899 9.03092C30.5316 10.8018 29.4031 12.7809 28.6045 14.9684C27.0767 15.6976 25.6795 16.592 24.4128 17.6518C23.1462 18.7115 22.0087 19.9004 21.0003 21.2184ZM17.1982 17.3122C16.7816 16.9997 16.3649 16.7045 15.9482 16.4268C15.5316 16.149 15.0975 15.8712 14.6462 15.5934C14.6462 15.3851 14.6635 15.1684 14.6982 14.9434C14.733 14.7184 14.7503 14.5011 14.7503 14.2913C14.7503 11.6525 14.3337 9.15245 13.5003 6.79134C12.667 4.43023 11.4864 2.27745 9.95866 0.333008C12.2503 1.27051 14.2385 2.61565 15.9232 4.36842C17.608 6.1212 18.901 8.14412 19.8024 10.4372C19.1774 11.4788 18.6392 12.5816 18.1878 13.7455C17.7364 14.9094 17.4066 16.0983 17.1982 17.3122Z" fill="white"/>
</svg>
