<svg width="48" height="48" viewBox="0 0 48 48" fill="none" xmlns="http://www.w3.org/2000/svg">
<path d="M2.84249 0.464844C2.76651 0.464844 2.69073 0.469238 2.61358 0.477051C1.37872 0.602832 0.479793 1.70488 0.605477 2.93994C0.731258 4.17471 1.83341 5.07373 3.06837 4.94775C4.30304 4.82227 5.20206 3.72012 5.07628 2.48516C4.95831 1.32734 3.98175 0.464551 2.84239 0.464844H2.84249ZM14.6772 1.35596C14.6322 1.35596 14.5857 1.35742 14.5399 1.36211C13.8095 1.43633 13.2784 2.09033 13.3528 2.8208C13.4271 3.55127 14.081 4.08232 14.8114 4.00791C15.5419 3.93369 16.073 3.28281 15.9985 2.55234C15.9288 1.86748 15.3511 1.35586 14.6773 1.35605L14.6772 1.35596ZM7.27374 3.10772C7.22882 3.10772 7.18487 3.10908 7.13936 3.11377C6.4089 3.18818 5.87471 3.84199 5.94913 4.57256C6.02354 5.30303 6.67735 5.83408 7.40792 5.75967C8.13839 5.68516 8.66944 5.03438 8.59503 4.30391C8.5253 3.61904 7.94757 3.10752 7.27374 3.10772ZM17.9884 4.26123C17.9154 4.26123 17.8427 4.26289 17.7687 4.27041C16.5835 4.39102 15.7192 5.45029 15.8399 6.63545C15.9606 7.82051 17.0199 8.68477 18.205 8.56416C19.39 8.44346 20.2514 7.38408 20.1308 6.19893C20.0175 5.08799 19.0816 4.26084 17.9882 4.26113L17.9884 4.26123ZM10.6732 6.58984C10.5441 6.58984 10.414 6.59473 10.2825 6.60801C9.53282 6.68438 8.85616 6.97598 8.30499 7.41074C8.05033 7.20092 7.75653 7.04375 7.44065 6.94836C7.12477 6.85298 6.79309 6.82127 6.46485 6.85508C5.09063 6.99521 4.0879 8.22129 4.22794 9.5957C4.36798 10.9701 5.59727 11.9695 6.97159 11.8296C7.01886 11.8247 7.06567 11.8186 7.11202 11.8112C7.54952 12.9262 8.48722 13.7679 9.62667 14.0909C9.49584 14.4394 9.44776 14.8135 9.48624 15.1837C9.62149 16.5116 10.8102 17.4796 12.1382 17.3442C13.4663 17.209 14.4312 16.0233 14.2959 14.6953C14.2644 14.3794 14.1707 14.0727 14.0204 13.793C13.8701 13.5133 13.666 13.2661 13.4199 13.0654C14.1726 12.284 14.5914 11.1898 14.4729 10.026C14.2724 8.05664 12.6113 6.58916 10.6734 6.58975L10.6732 6.58984ZM21.3056 10.8286C21.1099 10.8279 20.9144 10.8371 20.7196 10.856C17.5702 11.1769 15.278 13.9901 15.5988 17.1397C15.6457 17.6042 15.7492 18.0613 15.9069 18.5008C14.2517 19.2564 13.1823 21.0027 13.3771 22.9136C13.6212 25.3124 15.7632 27.0581 18.1622 26.8138C18.5555 26.7736 18.9415 26.6801 19.3097 26.536C19.3142 26.6686 19.3233 26.8018 19.337 26.9356C19.6407 29.9183 22.073 32.1692 24.9737 32.3343C24.487 33.8187 24.2955 35.4255 24.464 37.0798C24.4687 37.1277 24.4738 37.1755 24.4792 37.2231C24.4487 37.2255 24.4183 37.2261 24.3877 37.2293C22.4607 37.4254 21.0603 39.1475 21.2565 41.0744C21.4527 43.0012 23.1717 44.4048 25.0986 44.2086C25.8442 44.1338 26.546 43.8214 27.1006 43.3175C29.4699 46.1339 33.1455 47.7681 37.083 47.3671C43.4075 46.7231 48.0114 41.0729 47.3672 34.7482C46.9733 30.8789 44.7061 27.6538 41.5566 25.8798C41.7429 25.1508 41.8053 24.3769 41.7246 23.5849C41.3565 19.9687 38.1264 17.3358 34.5103 17.704C32.0446 17.9552 30.0388 19.538 29.127 21.6653C28.1558 20.8724 26.9404 20.3815 25.6296 20.3164C26.6301 19.1637 27.1696 17.6184 27.0029 15.98C26.7022 13.0272 24.2107 10.8278 21.3053 10.8286H21.3056ZM31.9286 10.9966C31.8316 10.9966 31.7346 11.0017 31.6358 11.0117C30.0558 11.1727 28.9054 12.584 29.0662 14.1641C29.2272 15.7443 30.6385 16.8947 32.2186 16.7338C33.7988 16.5729 34.9492 15.1615 34.7883 13.5814C34.6373 12.1 33.3863 10.9962 31.9286 10.9966ZM37.7454 13.5691C37.7005 13.5691 37.6536 13.5736 37.6081 13.5782C36.8776 13.6527 36.3466 14.3035 36.421 15.034C36.4952 15.7645 37.1492 16.2957 37.8797 16.2212C38.6102 16.1467 39.1412 15.496 39.0668 14.7655C38.9972 14.0807 38.4193 13.569 37.7455 13.5692L37.7454 13.5691ZM5.01222 18.7632C4.96729 18.7632 4.92364 18.7647 4.87804 18.7693C4.14757 18.8436 3.61339 19.4944 3.6878 20.225C3.74981 20.8344 4.21612 21.3036 4.79259 21.3998C4.73708 21.6605 4.72265 21.9282 4.74981 22.1934C4.89288 23.5984 6.1463 24.6221 7.55138 24.4791C8.95645 24.3361 9.98009 23.0797 9.83712 21.6744C9.69395 20.2695 8.44063 19.2457 7.03536 19.3888C6.76342 19.4165 6.49768 19.4876 6.24825 19.5994C6.0502 19.1019 5.56231 18.7631 5.01222 18.7633V18.7632ZM9.32139 26.1759C9.25597 26.1759 9.18936 26.1784 9.12296 26.1852C8.06016 26.2934 7.28741 27.2433 7.39571 28.3063C7.50382 29.3689 8.45372 30.1417 9.51661 30.0334C10.5794 29.9253 11.3521 28.9784 11.2439 27.9156C11.1423 26.9192 10.3017 26.1759 9.3212 26.1761L9.32139 26.1759ZM14.0851 29.8136C13.9404 29.8134 13.7957 29.8206 13.6518 29.8351C11.3204 30.0724 9.62413 32.1575 9.86173 34.489C10.099 36.8204 12.1811 38.5167 14.5125 38.2793C15.4725 38.1826 16.3706 37.7605 17.0576 37.083C17.5787 37.3827 18.1809 37.5108 18.7788 37.4492C20.3591 37.2881 21.5095 35.8768 21.3485 34.2966C21.1876 32.7165 19.7763 31.5661 18.1962 31.7271C18.0221 31.7446 17.8549 31.7781 17.6925 31.8247C16.9366 30.6047 15.5847 29.8132 14.0854 29.8136H14.0851Z" fill="white"/>
</svg>
