<svg width="88" height="89" viewBox="0 0 88 89" fill="none" xmlns="http://www.w3.org/2000/svg">
<path d="M52.3327 11.6663C52.3327 13.8765 51.4547 15.9961 49.8919 17.5589C48.3291 19.1217 46.2095 19.9997 43.9993 19.9997C41.7892 19.9997 39.6696 19.1217 38.1068 17.5589C36.544 15.9961 35.666 13.8765 35.666 11.6663C35.666 9.4562 36.544 7.33659 38.1068 5.77378C39.6696 4.21098 41.7892 3.33301 43.9993 3.33301C46.2095 3.33301 48.3291 4.21098 49.8919 5.77378C51.4547 7.33659 52.3327 9.4562 52.3327 11.6663Z" stroke="#4ABA5D" stroke-width="4.75"/>
<path d="M43.9997 57.4995L46.7122 55.9495C46.4387 55.4716 46.0439 55.0743 45.5675 54.7981C45.0912 54.5218 44.5503 54.3763 43.9997 54.3763C43.449 54.3763 42.9081 54.5218 42.4318 54.7981C41.9555 55.0743 41.5606 55.4716 41.2872 55.9495L43.9997 57.4995ZM18.208 43.1662L27.2747 46.1912L29.2455 40.262L20.1872 37.237L18.208 43.1662ZM28.6497 49.112L23.458 62.6162L29.2913 64.862L34.4872 51.3537L28.6497 49.112ZM67.8122 37.237L58.7455 40.262L60.7247 46.1912L69.783 43.1662L67.8122 37.237ZM53.508 51.3537L58.708 64.862L64.5372 62.6162L59.3413 49.112L53.508 51.3537ZM40.1455 70.5412L46.708 59.0495L41.283 55.9495L34.7163 67.437L40.1455 70.5412ZM64.7872 24.8495L56.8872 26.5412L58.1913 32.6537L66.1038 30.9579L64.7872 24.8495ZM31.1247 26.5412L23.208 24.8495L21.8997 30.9579L29.808 32.6537L31.1247 26.5412ZM41.2913 59.0495L47.858 70.5412L53.283 67.437L46.7163 55.9495L41.2913 59.0495ZM56.8872 26.5412L56.0288 26.7245L57.2955 32.8454L58.1913 32.6537L56.8872 26.5412ZM29.808 32.6537L30.708 32.8454L31.9747 26.7204L31.1163 26.5412L29.808 32.6537ZM56.0288 26.7245C48.0948 28.3657 39.9088 28.3615 31.9747 26.7204L30.708 32.8454C39.4763 34.6589 48.523 34.6589 57.2913 32.8454L56.0288 26.7245ZM32.1038 75.2079C35.4288 75.2079 38.4997 73.4245 40.1455 70.5412L34.7163 67.437C34.4541 67.8997 34.0778 68.2844 33.618 68.5516C33.1582 68.8188 32.6357 68.959 32.1038 68.9579V75.2079ZM58.708 64.862C58.8839 65.3185 58.946 65.811 58.889 66.2968C58.8319 66.7827 58.6574 67.2473 58.3804 67.6506C58.1035 68.0539 57.7325 68.3837 57.2996 68.6115C56.8666 68.8392 56.3847 68.9581 55.8955 68.9579V75.2079C57.3993 75.2082 58.8806 74.8425 60.2114 74.1421C61.5421 73.4418 62.6824 72.428 63.5336 71.1883C64.3848 69.9486 64.9214 68.5203 65.097 67.0268C65.2725 65.5333 65.0777 64.0195 64.5372 62.6162L58.708 64.862ZM58.7497 40.262C57.8247 40.5704 56.8413 40.8745 56.0413 41.3662L59.3247 46.687C59.283 46.7079 59.3163 46.6829 59.558 46.5912C59.8122 46.4954 60.1538 46.3829 60.7247 46.1912L58.7497 40.262ZM59.3413 49.112C59.1898 48.73 59.0495 48.3452 58.9122 47.9579C58.8288 47.712 58.8288 47.6704 58.8372 47.712L52.6455 48.562C52.7705 49.4912 53.1622 50.4454 53.5122 51.3537L59.3413 49.112ZM56.0413 41.3662C54.8392 42.1078 53.8782 43.1826 53.2754 44.4601C52.6726 45.7375 52.4537 47.1626 52.6455 48.562L58.8372 47.712C58.8106 47.5123 58.8425 47.3092 58.9291 47.1273C59.0156 46.9454 59.153 46.7924 59.3247 46.687L56.0413 41.3662ZM70.0413 34.1454C70.0426 34.8298 69.8278 35.4971 69.4276 36.0523C69.0273 36.6074 68.462 37.022 67.8122 37.237L69.783 43.1662C71.6775 42.5366 73.3297 41.3263 74.4972 39.707C75.6648 38.0877 76.2925 36.1417 76.2913 34.1454H70.0413ZM23.458 62.6162C22.9175 64.0195 22.7268 65.5333 22.9024 67.0268C23.078 68.5203 23.6145 69.9486 24.4658 71.1883C25.317 72.428 26.4572 73.4418 27.788 74.1421C29.1188 74.8425 30.6 75.2082 32.1038 75.2079V68.9579C31.6146 68.9581 31.1327 68.8392 30.6998 68.6115C30.2668 68.3837 29.8959 68.0539 29.6189 67.6506C29.342 67.2473 29.1675 66.7827 29.1104 66.2968C29.0533 65.811 29.1154 65.3185 29.2913 64.862L23.458 62.6162ZM27.2747 46.1912C27.8455 46.3787 28.1872 46.4954 28.4413 46.5912C28.683 46.6829 28.7122 46.7079 28.6747 46.687L31.958 41.3662C31.158 40.8745 30.1747 40.5704 29.2497 40.262L27.2747 46.1912ZM34.483 51.3579C34.8372 50.4412 35.2247 49.4912 35.3538 48.562L29.1622 47.712C29.1663 47.6704 29.1663 47.712 29.0872 47.9579C28.9499 48.3452 28.8054 48.73 28.6538 49.112L34.483 51.3579ZM28.6747 46.687C28.8463 46.7924 28.9838 46.9454 29.0703 47.1273C29.1568 47.3092 29.1887 47.5123 29.1622 47.712L35.3538 48.562C35.5456 47.1626 35.3268 45.7375 34.724 44.4601C34.1211 43.1826 33.1602 42.1078 31.958 41.3662L28.6747 46.687ZM11.708 34.1454C11.708 38.2412 14.3288 41.8745 18.208 43.1662L20.1872 37.237C19.5374 37.022 18.9721 36.6074 18.5718 36.0523C18.1715 35.4971 17.9567 34.8298 17.958 34.1454H11.708ZM17.958 34.1454C17.958 32.0704 19.8747 30.5204 21.8997 30.9579L23.208 24.8495C21.8216 24.5519 20.3903 24.5681 19.011 24.897C17.6316 25.2259 16.3433 25.8591 15.2403 26.7504C14.1374 27.6416 13.2478 28.7682 12.6366 30.0478C12.0254 31.3273 11.7081 32.7273 11.708 34.1454H17.958ZM47.858 70.5412C48.6672 71.9597 49.8333 73.1387 51.2457 73.9583C52.6582 74.778 54.2625 75.2091 55.8955 75.2079V68.9579C54.8122 68.9579 53.8163 68.3745 53.283 67.437L47.858 70.5412ZM76.2913 34.1454C76.2911 32.7278 75.9739 31.3282 75.363 30.049C74.752 28.7698 73.8628 27.6435 72.7603 26.7523C71.6579 25.8612 70.3701 25.2278 68.9913 24.8986C67.6125 24.5693 66.1733 24.5526 64.7872 24.8495L66.1038 30.9579C66.5791 30.8559 67.0669 30.8616 67.5397 30.9745C68.0124 31.0873 68.4539 31.3045 68.8318 31.6101C69.2098 31.9158 69.5145 32.3021 69.7238 32.7407C69.9331 33.1794 70.0416 33.6593 70.0413 34.1454H76.2913Z" fill="#4ABA5D"/>
<path d="M75.058 55.416C81.6538 58.7327 85.6663 63.116 85.6663 67.916C85.6663 78.2702 67.0122 86.666 43.9997 86.666C20.9872 86.666 2.33301 78.2702 2.33301 67.916C2.33301 63.116 6.34551 58.7327 12.9413 55.416" stroke="#4ABA5D" stroke-width="3.75" stroke-linecap="round"/>
</svg>
