<svg width="88" height="90" viewBox="0 0 88 90" fill="none" xmlns="http://www.w3.org/2000/svg">
<path d="M77.7422 0.25V32.4766H81.2578V0.25H77.7422ZM74.2266 2.78711L55.9844 9.625L74.2266 16.4609V2.78711ZM24.4023 14.1172C23.4258 14.1172 22.4102 14.5664 21.4141 15.4844C20.2031 16.6172 19.168 18.4336 18.7187 20.6211C18.2695 22.8281 18.5234 24.918 19.207 26.4219C19.8906 27.9453 20.8867 28.8242 22.0586 29.0586C23.2305 29.3125 24.4805 28.8828 25.7109 27.7695C26.9023 26.6367 27.957 24.8203 28.4062 22.6133C28.8359 20.4062 28.582 18.3164 27.918 16.8125C27.2344 15.2891 26.2383 14.4297 25.0664 14.1758C24.8516 14.1367 24.6172 14.1172 24.4023 14.1172ZM16.9023 29.4492C16.2383 29.6836 15.5547 29.9375 14.8125 30.25C9.95898 33.3164 6.57031 36.3438 3.125 41.1289C0.939453 44.1563 0.832031 49.332 0.667969 53.1406L4.73047 54.9375C4.90039 49.5078 4.80078 47.2617 7.32226 44.1367C9.24219 41.7539 11.0977 39.2539 14.6562 38.4922C14.9687 44.1367 14.1484 52.8867 11.9219 61.8516C15.9258 62.3984 19.2656 61.7148 23.0547 60.6211C32.957 55.6797 37.5273 59.8789 44.4023 69.5469L48.4062 63.2773C43.6016 57.6328 38.9336 48.6094 25.5156 52.0859C26.4922 46.7539 26.6094 43.2188 27.1953 37.9063C27.3125 35.5625 27.3516 33.2383 27.4102 30.9336C25.6719 32.2617 23.5234 32.9648 21.3555 32.5156C19.5 32.125 17.9766 30.9727 16.9023 29.4492ZM45.0664 30.875C41.5117 34.3516 40.7305 36.9297 35.2617 38.375L30.8672 33.6875C30.7891 36.1875 30.7109 38.7461 30.4961 41.3437C32.3516 43.043 34.2461 44.4102 34.9297 44.1953C41.043 42.3594 42.8008 40.2305 46.9219 36.0117L45.0664 30.875ZM71.8828 35.9922V54.7422H53.1328V73.4922H34.3828V88.7461C54.3633 88.7852 67.1562 88.9609 87.1172 89.0977V35.9922H71.8828ZM19.4805 65.0742C16.8242 65.5625 14.0508 65.7187 10.9961 65.25C8.86914 72.5742 5.76953 79.7617 1.52148 85.2695L9.06641 88.2578C14.3437 80.8555 16.2578 74.4687 19.4805 65.0742Z" fill="#4ABA5D"/>
</svg>
