<svg width="50" height="50" viewBox="0 0 50 50" fill="none" xmlns="http://www.w3.org/2000/svg">
<path d="M10.1562 3.6377V21.0059C10.5078 21.9727 11.1328 22.3828 12.1973 22.666C13.3105 22.9492 14.8438 22.9688 16.4844 22.9688C18.125 22.9688 19.8633 22.959 21.5039 23.3203C22.4316 23.5254 23.3301 23.877 24.1211 24.4141V5.41309C23.418 4.44629 22.5684 4.07617 21.4551 3.93945C20.2637 3.79395 18.7891 3.99316 17.2656 4.21582C15.7324 4.43848 14.1504 4.68555 12.6074 4.49707C11.7578 4.39258 10.918 4.11914 10.1562 3.6377ZM39.8438 3.6377C39.082 4.11914 38.2422 4.39258 37.3926 4.49707C35.8496 4.68555 34.2676 4.43848 32.7344 4.21582C31.2109 3.99316 29.7363 3.79395 28.5449 3.93945C27.4316 4.07617 26.582 4.44629 25.8789 5.41309V24.4141C26.6699 23.877 27.5684 23.5254 28.4961 23.3203C30.1367 22.959 31.875 22.9688 33.5156 22.9688C35.1563 22.9688 36.6895 22.9492 37.8027 22.666C38.8672 22.3828 39.4922 21.9727 39.8438 21.0059V3.6377ZM12.7734 7.81543H21.5039V9.57324H12.7734V7.81543ZM28.4961 7.81543H37.2266V9.57324H28.4961V7.81543ZM12.7734 12.1582H21.5039V13.916H12.7734V12.1582ZM28.4961 12.1582H37.2266V13.916H28.4961V12.1582ZM12.7734 16.7285H21.5039V18.4863H12.7734V16.7285ZM28.4961 16.7285H37.2266V18.4863H28.4961V16.7285ZM9.375 24.3164C7.68555 24.3164 6.52441 25.0293 5.68652 26.1621C4.84961 27.2852 4.39453 28.877 4.39453 30.4688C4.39453 32.0605 4.84961 33.6523 5.68652 34.7754C6.52441 35.9082 7.68555 36.6211 9.375 36.6211C11.5234 36.6211 12.8613 35.9277 13.7109 35.2539C14.5508 34.5801 14.834 33.9844 14.834 33.9844L15.0781 33.4961H34.9219L35.166 33.9844C35.166 33.9844 35.4492 34.5801 36.2891 35.2539C37.1387 35.9277 38.4766 36.6211 40.625 36.6211C42.3145 36.6211 43.4766 35.9082 44.3164 34.7754C45.1465 33.6523 45.6055 32.0605 45.6055 30.4688C45.6055 28.877 45.1465 27.2852 44.3164 26.1621C43.4766 25.0293 42.3145 24.3164 40.625 24.3164C38.4766 24.3164 37.1387 25.0098 36.2891 25.6836C35.4492 26.3574 35.166 26.9531 35.166 26.9531L34.9219 27.4414H15.0781L14.834 26.9531C14.834 26.9531 14.5508 26.3574 13.7109 25.6836C12.8613 25.0098 11.5234 24.3164 9.375 24.3164ZM9.82422 26.4551C9.91211 26.4551 10.0098 26.4551 10.1074 26.4648C11.4258 26.582 12.8613 27.334 14.4141 28.8086H35.5859C37.1387 27.334 38.5742 26.582 39.8926 26.4648C41.2793 26.3477 42.4902 27.0313 43.125 28.0469C44.4043 30.0879 43.8086 33.3105 41.1133 35.1074L40.1367 33.6426C42.1289 32.3145 42.3145 30.0684 41.6406 28.9844C41.2988 28.4375 40.8496 28.1445 40.0391 28.2227C39.2383 28.291 38.0273 28.8379 36.5625 30.3125L36.2988 30.5664H13.7012L13.4375 30.3125C11.9727 28.8379 10.7617 28.291 9.96094 28.2227C9.1543 28.1445 8.70117 28.4375 8.3623 28.9844C7.68652 30.0684 7.875 32.3145 9.86328 33.6426L8.8877 35.1074C6.1875 33.3105 5.59473 30.0879 6.87207 28.0469C7.43066 27.1582 8.4248 26.5234 9.59863 26.4551H9.82422ZM16.5039 35.2539V47.5586H19.4336V35.2539H16.5039ZM21.1914 35.2539V47.5586H24.1211V35.2539H21.1914ZM25.8789 35.2539V47.5586H28.8086V35.2539H25.8789ZM30.5664 35.2539V47.5586H33.4961V35.2539H30.5664Z" fill="white"/>
</svg>
