<svg width="48" height="50" viewBox="0 0 48 50" fill="none" xmlns="http://www.w3.org/2000/svg">
<path d="M11.9629 32.7882C11.556 32.7882 11.1654 32.7068 10.791 32.544C10.4167 32.3813 10.0749 32.1534 9.76562 31.8604L0.90332 22.9981C0.301107 22.3959 0 21.6635 0 20.8009C0 20.3614 0.0813802 19.9545 0.244141 19.5802C0.406901 19.2058 0.626628 18.8803 0.90332 18.6036C1.18001 18.3269 1.51367 18.1072 1.9043 17.9444C2.29492 17.7817 2.70182 17.7003 3.125 17.7003C3.54818 17.7003 3.94694 17.7735 4.32129 17.92C4.69564 18.0665 5.03744 18.2944 5.34668 18.6036L14.1846 27.4415C14.4775 27.7345 14.6973 28.0681 14.8438 28.4425C14.9902 28.8168 15.0716 29.2237 15.0879 29.6632C15.0879 30.0863 15.0065 30.4851 14.8438 30.8595C14.681 31.2338 14.4613 31.5675 14.1846 31.8604C13.9079 32.1534 13.5742 32.3813 13.1836 32.544C12.793 32.7068 12.3861 32.7882 11.9629 32.7882ZM29.6387 15.1124C29.2318 15.1124 28.8411 15.031 28.4668 14.8682C28.0924 14.7055 27.7507 14.4776 27.4414 14.1847L18.6035 5.34676C17.985 4.72827 17.6758 3.98771 17.6758 3.12508C17.6758 2.68563 17.7572 2.27873 17.9199 1.90438C18.0827 1.53003 18.3024 1.20451 18.5791 0.927816C18.8558 0.651123 19.1895 0.423258 19.5801 0.244222C19.9707 0.0651855 20.3776 -0.0161947 20.8008 8.13804e-05C21.6634 8.13804e-05 22.3958 0.301188 22.998 0.903402L31.8604 9.76571C32.1533 10.0587 32.373 10.3923 32.5195 10.7667C32.666 11.141 32.7474 11.5479 32.7637 11.9874C32.7637 12.4106 32.6823 12.8093 32.5195 13.1837C32.3568 13.558 32.137 13.8917 31.8604 14.1847C31.5837 14.4776 31.25 14.7055 30.8594 14.8682C30.4688 15.031 30.0618 15.1124 29.6387 15.1124ZM16.9434 24.6583L8.10547 15.8204L15.8203 8.10555L24.6582 16.9434L16.9434 24.6583ZM47.3145 45.1173C47.6237 45.4265 47.7783 45.7927 47.7783 46.2159C47.7783 46.6391 47.6237 47.0053 47.3145 47.3145C47.0052 47.6238 46.639 47.7784 46.2158 47.7784C45.7926 47.7784 45.4264 47.6238 45.1172 47.3145L21.8994 24.1212L24.1211 21.8995L47.3145 45.1173ZM0 46.8751H25V50.0001H0V46.8751ZM3.125 40.6251H21.875V43.7501H3.125V40.6251Z" fill="white"/>
</svg>
