<svg width="43" height="65" viewBox="0 0 43 65" fill="none" xmlns="http://www.w3.org/2000/svg">
<mask id="mask0_821_6418" style="mask-type:luminance" maskUnits="userSpaceOnUse" x="0" y="0" width="43" height="65">
<path d="M41.5 32.1602C41.5 42.4587 32.5462 50.8079 21.5 50.8079C10.4538 50.8079 1.5 42.4587 1.5 32.1602C1.5 21.8618 21.5 1.57715 21.5 1.57715C21.5 1.57715 41.5 21.8602 41.5 32.1602Z" fill="#555555" stroke="white" stroke-width="3" stroke-linejoin="round"/>
<path d="M21.5 1.57715V50.8079V63.1156" stroke="white" stroke-width="3" stroke-linecap="round" stroke-linejoin="round"/>
<path d="M41.5 32.1602C41.5 42.4587 32.5462 50.8079 21.5 50.8079C10.4538 50.8079 1.5 42.4587 1.5 32.1618M41.5 32.1602C41.5 21.8602 21.5 1.57715 21.5 1.57715C21.5 1.57715 1.5 21.8618 1.5 32.1618" stroke="white" stroke-width="3" stroke-linejoin="round"/>
</mask>
<g mask="url(#mask0_821_6418)">
<path d="M-15.4238 -4.57715H58.4223V69.269H-15.4238V-4.57715Z" fill="white"/>
</g>
</svg>
