<svg width="55" height="55" viewBox="0 0 55 55" fill="none" xmlns="http://www.w3.org/2000/svg">
<path d="M52.9133 6.71593L44.0954 15.0377L52.5304 29.2352L52.9133 28.7592V6.71593ZM2.08594 6.83734V30.9582C2.56431 31.0204 3.13911 31.0546 3.71914 31.0607C4.98662 31.0741 6.03136 30.9913 6.61822 30.9386L12.2407 16.7117L2.08594 6.83734ZM43.6399 18.0343L42.8881 18.5208C42.8721 18.5311 42.3156 18.877 42.1521 18.9789L41.0197 19.6644L41.0357 19.674C40.511 20.0004 40.3651 20.0923 39.7696 20.4621C39.4674 20.6497 39.4599 20.654 39.1733 20.832C37.0068 19.6674 34.6559 18.7723 31.9125 18.0684C28.4622 19.1108 24.8071 20.6191 21.1574 22.0344C22.6726 23.8589 24.3565 24.4531 26.0527 24.4743C28.0196 24.4989 30.0303 23.6436 31.415 22.6853L32.2052 22.1386L32.9981 23.2844L45.3262 32.1823L50.1433 28.9803L43.6399 18.0343ZM13.6691 18.3269L8.82483 30.5838L10.6027 31.951L13.891 28.2238L14.1544 27.9253L14.5517 27.9006C14.7118 27.8905 14.8699 27.8859 15.0258 27.8867C16.1162 27.8937 17.0911 28.1767 17.8223 28.8221C18.3639 29.2996 18.724 29.9354 18.9329 30.6715L19.1763 30.6564C20.4571 30.5763 21.6111 30.8406 22.447 31.5779C23.2828 32.3154 23.6888 33.4276 23.7689 34.7087L23.7764 34.824C24.4641 34.9538 25.0797 35.2246 25.5802 35.6663C26.4161 36.4037 26.8221 37.5157 26.9022 38.7967L26.9232 39.1299C26.9914 39.1515 27.0591 39.1749 27.1261 39.2002L27.3432 38.8955L27.9273 38.0757L28.2276 37.6539L29.0103 38.2116L35.3561 42.7322C36.0463 42.562 36.4577 42.2971 36.6865 41.9756C36.9158 41.654 37.0318 41.1779 36.9667 40.4692L29.3578 35.0202L28.5764 34.4607L29.1306 33.687L29.8428 32.687L30.6255 33.2447L39.2037 39.3553C39.8939 39.1852 40.3056 38.9203 40.5345 38.5988C40.7634 38.2774 40.8794 37.8025 40.8148 37.0951L30.9485 30.0957L30.1647 29.5393L31.2767 27.9718L32.0608 28.5279L41.9288 35.5289C42.6197 35.3587 43.0315 35.0938 43.2607 34.7721C43.49 34.4501 43.6059 33.9738 43.5404 33.2638L31.7476 24.7524C30.1828 25.6801 28.181 26.4233 26.0288 26.3964C23.5102 26.3649 20.8161 25.1613 18.8343 22.1198C18.7559 21.9995 18.7055 21.8632 18.6867 21.7209C18.6679 21.5786 18.6812 21.4338 18.7257 21.2973C18.7702 21.1608 18.8447 21.036 18.9437 20.9321C19.0428 20.8282 19.1638 20.7478 19.298 20.6968C20.6877 20.1687 22.0917 19.6108 23.4991 19.0573L13.6693 18.3275L13.6691 18.3269ZM15.0468 29.8186L9.96791 35.5751C10.0669 36.2954 10.2925 36.7435 10.5965 37.0117C10.9005 37.2799 11.3734 37.4479 12.1004 37.4563L17.1792 31.7C17.0802 30.9796 16.8546 30.5313 16.5506 30.2631C16.2466 29.9949 15.7739 29.827 15.0467 29.8187L15.0468 29.8186ZM19.6712 32.5746L13.9358 39.0753C14.0346 39.7958 14.2604 40.244 14.5643 40.5123C14.8686 40.7803 15.3411 40.9482 16.0683 40.9565L21.8037 34.4559C21.7049 33.7354 21.4791 33.2873 21.1751 33.019C20.8711 32.7506 20.3985 32.5828 19.6713 32.5743L19.6712 32.5746ZM22.8042 36.6627L17.7257 42.4193C17.8247 43.1396 18.0503 43.5877 18.3543 43.8561C18.6584 44.1243 19.1311 44.2921 19.8582 44.3005L24.9369 38.5446C24.8379 37.8239 24.6123 37.3757 24.3083 37.1074C24.0043 36.8391 23.5316 36.6714 22.8044 36.6629L22.8042 36.6627ZM25.4419 40.8418L21.2994 45.57C21.3982 46.2918 21.6238 46.7405 21.9281 47.009C22.2319 47.277 22.7041 47.4449 23.4302 47.4535L27.5729 42.7253C27.474 42.0037 27.2482 41.555 26.9439 41.2863C26.6402 41.0183 26.1681 40.8507 25.442 40.8419L25.4419 40.8418ZM29.2157 41.3533C29.3966 41.8466 29.5011 42.3933 29.5375 42.9755L29.5623 43.371L28.6785 44.3798L31.5321 46.4126C32.2223 46.2424 32.6336 45.9775 32.8625 45.656C33.0916 45.3346 33.2078 44.859 33.1432 44.1511L29.2158 41.3535L29.2157 41.3533Z" fill="white"/>
</svg>
