<svg width="50" height="50" viewBox="0 0 50 50" fill="none" xmlns="http://www.w3.org/2000/svg">
<path d="M23.5449 2.13927C14.7852 2.12462 6.65137 2.38048 6.75391 2.94688L8.91016 6.47618C14.707 5.97813 20.2344 5.79747 25.7715 5.83458C30.9668 5.86876 36.1719 6.09532 41.6016 6.4293L44.6484 3.17931C44.209 2.5211 33.4766 2.15587 23.5449 2.13927ZM23.916 7.58946C19.1211 7.60118 14.3164 7.7838 9.29785 8.20665C7.16992 20.2828 5.99121 35.0191 8.76074 44.1109L6.17969 47.1383C18.6914 48.0758 31.4258 48.3785 43.5449 47.7535L40.625 44.277C42.5098 33.9059 41.9238 19.7457 40.6445 8.13243C35.6445 7.8336 30.8496 7.63438 26.0645 7.5963L39.1699 19.6285H32.207C32.5781 21.8844 34.1992 24.9313 35.9082 27.7535C36.875 29.3551 37.8613 30.9078 38.6133 32.275C39.3652 33.6422 39.9414 34.7848 39.9414 35.9371C39.9414 38.6715 38.0957 40.9176 35.3809 42.3727C32.666 43.8375 29.0234 44.6285 25 44.6285C20.9766 44.6285 17.334 43.8375 14.6191 42.3727C11.9043 40.9176 10.0586 38.6715 10.0586 35.9371C10.0586 34.7652 10.6641 33.6227 11.4551 32.2359C12.2461 30.8492 13.2715 29.2867 14.2676 27.6656C16.0254 24.8238 17.627 21.7574 17.8516 19.6285H10.1562L23.916 7.58946ZM24.9902 8.99278L14.8438 17.8707H19.5605L19.6289 18.6715C19.8926 21.7867 17.7832 25.3121 15.7617 28.5934C14.7461 30.234 13.7305 31.7867 12.9883 33.1051C12.2363 34.4137 11.8164 35.5465 11.8164 35.9371C11.8164 37.3629 12.5 38.6227 13.7793 39.7066C19.0723 39.0426 21.7871 38.6715 24.1699 38.5934C24.2285 37.7633 24.3359 36.9332 24.4727 36.1324C20.8984 36.357 17.6074 35.4 14.3652 34.2477C15.8203 31.4352 18.4961 29.4723 20.9082 29.482C21.3574 29.482 21.7969 29.5406 22.2168 29.6871C23.3105 30.0387 24.2969 32.0016 24.9512 33.652C25.166 32.6266 25.3711 31.7477 25.459 31.1031V31.0934C25.5469 30.4879 25.3027 28.7496 24.9902 27.3141C24.7656 26.2789 24.5312 25.3707 24.4141 24.941C23.7988 24.941 23.252 24.8238 22.8906 24.4527C20.4102 21.8746 22.0215 17.109 24.1504 14.4527C25.6641 16.9723 27.6367 19.6871 29.6191 21.5621C29.1895 23.0074 28.4082 24.1695 26.8945 24.6871C26.6895 24.7066 26.4355 24.7359 26.1816 24.775C26.3184 25.2828 26.5137 26.0445 26.709 26.9332C26.8359 27.4899 26.9531 28.066 27.0508 28.6422C27.5684 28.1637 28.1641 27.7242 28.6523 27.7047H28.7598C31.4941 27.9586 34.5898 30.5953 35.3711 34.443C32.6855 33.2125 29.6094 33.9254 27.1777 31.4938C26.9043 33.3102 26.1426 36.0445 25.9375 38.6031C28.291 38.6813 31.0059 39.0524 36.2207 39.7066C37.5 38.6227 38.1836 37.3629 38.1836 35.9371C38.1836 35.527 37.7832 34.4137 37.0703 33.1246C36.3574 31.8258 35.3906 30.2926 34.4043 28.6617C32.4414 25.4195 30.3711 21.8941 30.3711 18.7496V17.8707H34.6582L24.9902 8.99278ZM25 40.3219C22.8223 40.3219 20.5176 40.6149 16.1426 41.1715C18.457 42.2359 21.5625 42.8707 25 42.8707C28.4375 42.8707 31.543 42.2359 33.8574 41.1715C29.4824 40.6149 27.1777 40.3219 25 40.3219Z" fill="white"/>
</svg>
