<svg width="40" height="43" viewBox="0 0 40 43" fill="none" xmlns="http://www.w3.org/2000/svg">
<path d="M12.5 42.8538L8.33334 39.7288V31.3955H6.25001C5.10417 31.3955 4.12362 30.9879 3.30834 30.1726C2.49306 29.3573 2.08473 28.3761 2.08334 27.2288V11.6038C1.49306 11.6038 0.998619 11.4038 0.600007 11.0038C0.201396 10.6038 0.00139607 10.1094 7.1839e-06 9.52051C-0.0013817 8.93162 0.198619 8.43717 0.600007 8.03717C1.0014 7.63717 1.49584 7.43717 2.08334 7.43717H8.33334V4.31217H7.29167C6.7014 4.31217 6.20695 4.11217 5.80834 3.71217C5.40973 3.31217 5.20973 2.81773 5.20834 2.22884C5.20695 1.63995 5.40695 1.14551 5.80834 0.745508C6.20973 0.345508 6.70417 0.145508 7.29167 0.145508H13.5417C14.132 0.145508 14.6271 0.345508 15.0271 0.745508C15.4271 1.14551 15.6264 1.63995 15.625 2.22884C15.6236 2.81773 15.4236 3.31287 15.025 3.71426C14.6264 4.11565 14.132 4.31495 13.5417 4.31217H12.5V7.43717H18.75C19.3403 7.43717 19.8354 7.63717 20.2354 8.03717C20.6354 8.43717 20.8347 8.93162 20.8333 9.52051C20.832 10.1094 20.632 10.6045 20.2333 11.0059C19.8347 11.4073 19.3403 11.6066 18.75 11.6038V27.2288C18.75 28.3747 18.3424 29.3559 17.5271 30.1726C16.7118 30.9893 15.7306 31.3969 14.5833 31.3955H12.5V42.8538ZM31.25 41.8122C28.9583 41.8122 26.9965 40.9962 25.3646 39.3643C23.7326 37.7323 22.9167 35.7705 22.9167 33.4788V16.8122C22.9167 14.5205 23.7326 12.5587 25.3646 10.9268C26.9965 9.29481 28.9583 8.47884 31.25 8.47884C33.5417 8.47884 35.5035 9.29481 37.1354 10.9268C38.7674 12.5587 39.5833 14.5205 39.5833 16.8122V33.4788C39.5833 35.7705 38.7674 37.7323 37.1354 39.3643C35.5035 40.9962 33.5417 41.8122 31.25 41.8122ZM6.25001 27.2288H14.5833V24.1038H10.9375C10.5208 24.1038 10.1563 23.9476 9.84376 23.6351C9.53126 23.3226 9.37501 22.958 9.37501 22.5413C9.37501 22.1247 9.53126 21.7601 9.84376 21.4476C10.1563 21.1351 10.5208 20.9788 10.9375 20.9788H14.5833V17.8538H10.9375C10.5208 17.8538 10.1563 17.6976 9.84376 17.3851C9.53126 17.0726 9.37501 16.708 9.37501 16.2913C9.37501 15.8747 9.53126 15.5101 9.84376 15.1976C10.1563 14.8851 10.5208 14.7288 10.9375 14.7288H14.5833V11.6038H6.25001V27.2288ZM27.0833 29.3122H35.4167V20.9788H27.0833V29.3122Z" fill="white"/>
</svg>
