<svg width="40" height="33" viewBox="0 0 40 33" fill="none" xmlns="http://www.w3.org/2000/svg">
<path d="M39.9902 0.653526L33.0548 7.19876L39.6891 18.3653L39.9902 17.9909V0.653526ZM0.0136719 0.749017V19.7205C0.389922 19.7694 0.84201 19.7963 1.29821 19.8011C2.29511 19.8116 3.11681 19.7465 3.57839 19.705L8.00059 8.51539L0.0136719 0.749017ZM32.6965 9.55562L32.1053 9.93825C32.0927 9.9464 31.655 10.2184 31.5264 10.2985L30.6357 10.8377L30.6483 10.8453C30.2356 11.102 30.1209 11.1742 29.6525 11.4651C29.4148 11.6126 29.409 11.6161 29.1835 11.7561C27.4795 10.8401 25.6305 10.136 23.4728 9.58241C20.7591 10.4023 17.8843 11.5886 15.0137 12.7018C16.2054 14.1368 17.5299 14.6041 18.864 14.6208C20.411 14.6401 21.9924 13.9674 23.0815 13.2137L23.703 12.7837L24.3266 13.6849L34.0229 20.6833L37.8116 18.1649L32.6965 9.55562ZM9.12404 9.78574L5.31393 19.4261L6.71227 20.5013L9.29856 17.5698L9.50575 17.3351L9.81818 17.3156C9.94415 17.3077 10.0684 17.3041 10.1911 17.3047C11.0487 17.3102 11.8155 17.5328 12.3906 18.0404C12.8166 18.416 13.0998 18.916 13.2641 19.495L13.4555 19.4831C14.4629 19.4201 15.3706 19.628 16.028 20.2079C16.6853 20.7879 17.0047 21.6627 17.0677 22.6703L17.0736 22.761C17.6144 22.8631 18.0986 23.0761 18.4923 23.4235C19.1498 24.0035 19.4691 24.8781 19.5321 25.8856L19.5486 26.1477C19.6023 26.1647 19.6555 26.1831 19.7082 26.2029L19.8789 25.9633L20.3383 25.3185L20.5746 24.9867L21.1902 25.4254L26.1812 28.981C26.7241 28.8471 27.0477 28.6387 27.2276 28.3858C27.4079 28.1329 27.4992 27.7585 27.448 27.2011L21.4634 22.9153L20.8489 22.4753L21.2847 21.8667L21.8449 21.0802L22.4605 21.5189L29.2074 26.3249C29.7503 26.1912 30.0741 25.9828 30.2541 25.7299C30.4342 25.4771 30.5254 25.1036 30.4746 24.5473L22.7146 19.0421L22.0981 18.6045L22.9727 17.3716L23.5894 17.809L31.3508 23.3155C31.8941 23.1816 32.2181 22.9732 32.3983 22.7202C32.5787 22.467 32.6698 22.0923 32.6183 21.5339L23.3431 14.8395C22.1123 15.5692 20.5379 16.1537 18.8452 16.1325C16.8642 16.1077 14.7453 15.1612 13.1865 12.7689C13.1249 12.6743 13.0852 12.5671 13.0704 12.4552C13.0556 12.3432 13.0661 12.2294 13.1011 12.122C13.1361 12.0147 13.1947 11.9165 13.2726 11.8348C13.3505 11.753 13.4457 11.6898 13.5513 11.6497C14.6443 11.2344 15.7486 10.7956 16.8555 10.3602L9.12421 9.78624L9.12404 9.78574ZM10.2076 18.8241L6.21298 23.3517C6.29083 23.9183 6.46829 24.2707 6.70739 24.4817C6.9465 24.6926 7.31838 24.8247 7.89023 24.8314L11.8848 20.3039C11.8069 19.7373 11.6295 19.3847 11.3904 19.1738C11.1513 18.9628 10.7795 18.8308 10.2075 18.8242L10.2076 18.8241ZM13.8448 20.9918L9.33375 26.1047C9.41152 26.6714 9.58907 27.024 9.82809 27.2349C10.0674 27.4457 10.4391 27.5778 11.011 27.5843L15.5221 22.4715C15.4443 21.9048 15.2667 21.5524 15.0276 21.3413C14.7885 21.1303 14.4168 20.9982 13.8449 20.9916L13.8448 20.9918ZM16.3089 24.2072L12.3146 28.7348C12.3925 29.3014 12.5699 29.6538 12.809 29.8649C13.0482 30.0759 13.42 30.2078 13.9919 30.2144L17.9863 25.6873C17.9085 25.1204 17.731 24.768 17.4919 24.5569C17.2528 24.3459 16.881 24.214 16.3091 24.2074L16.3089 24.2072ZM18.3835 27.4941L15.1254 31.2129C15.2031 31.7807 15.3805 32.1336 15.6199 32.3447C15.8588 32.5555 16.2302 32.6875 16.8013 32.6943L20.0596 28.9755C19.9818 28.4079 19.8043 28.055 19.5649 27.8437C19.326 27.6329 18.9547 27.5011 18.3836 27.4942L18.3835 27.4941ZM21.3517 27.8964C21.4939 28.2844 21.5762 28.7144 21.6048 29.1723L21.6243 29.4834L20.9291 30.2768L23.1735 31.8756C23.7164 31.7418 24.0399 31.5334 24.22 31.2805C24.4001 31.0277 24.4915 30.6537 24.4407 30.0969L21.3517 27.8965L21.3517 27.8964Z" fill="white"/>
</svg>
