<svg width="40" height="40" viewBox="0 0 40 40" fill="none" xmlns="http://www.w3.org/2000/svg">
<path d="M19.98 13.6149L14.3964 6.80867L19.98 0L25.6016 6.80867L19.98 13.6149ZM0 40V31.4556C0 30.4791 0.26293 29.6401 0.788789 28.9387C1.31598 28.2372 1.9633 27.8547 2.73073 27.7913H8.51852C9.05772 27.7913 9.56957 27.9483 10.0541 28.2624C10.5399 28.5749 10.9403 29.0306 11.2553 29.6295C12.2749 31.371 13.5449 32.7218 15.0651 33.682C16.5866 34.639 18.2249 35.1175 19.98 35.1175C21.7431 35.1175 23.3914 34.6382 24.9249 33.6796C26.4598 32.7226 27.7324 31.3718 28.7427 29.6271C29.0737 29.0298 29.4801 28.5749 29.962 28.2624C30.4424 27.95 30.9356 27.7937 31.4414 27.7937H37.2272C38.0027 27.8556 38.6587 28.2372 39.1952 28.9387C39.7317 29.6385 40 30.4767 40 31.4532V39.9976H27.988V34.0702C26.8722 35.1818 25.6316 36.0411 24.2663 36.6482C22.9022 37.2552 21.4735 37.5587 19.98 37.5587C18.5199 37.5587 17.1118 37.2601 15.7558 36.6628C14.4011 36.0671 13.1532 35.2135 12.012 34.1019V40H0ZM5.11912 23.4727C3.75776 23.4727 2.58325 22.8705 1.5956 21.6662C0.607941 20.4618 0.114114 19.0296 0.114114 17.3695C0.114114 15.6704 0.607941 14.2285 1.5956 13.0436C2.58325 11.8604 3.75776 11.2688 5.11912 11.2688C6.51251 11.2688 7.69503 11.8604 8.66667 13.0436C9.63831 14.2285 10.1241 15.6712 10.1241 17.372C10.1241 19.0304 9.63831 20.4618 8.66667 21.6662C7.69503 22.8705 6.51251 23.4727 5.11912 23.4727ZM34.8408 23.4727C33.4795 23.4727 32.305 22.8705 31.3173 21.6662C30.3297 20.4618 29.8358 19.0296 29.8358 17.3695C29.8358 15.6704 30.3297 14.2285 31.3173 13.0436C32.305 11.8604 33.4795 11.2688 34.8408 11.2688C36.2342 11.2688 37.4167 11.8604 38.3884 13.0436C39.36 14.2285 39.8458 15.6712 39.8458 17.372C39.8458 19.0304 39.36 20.4618 38.3884 21.6662C37.4167 22.8705 36.2342 23.4727 34.8408 23.4727Z" fill="white"/>
</svg>
