<svg width="32" height="32" viewBox="0 0 32 32" fill="none" xmlns="http://www.w3.org/2000/svg">
<path d="M3.54102 32C2.67296 32 1.93546 31.7087 1.32852 31.126C0.721572 30.5433 0.417405 29.8347 0.416016 29V23C0.416016 22.1667 0.720183 21.4587 1.32852 20.876C1.93685 20.2933 2.67435 20.0013 3.54102 20C4.40768 19.9987 5.14588 20.2907 5.7556 20.876C6.36532 21.4613 6.66879 22.1693 6.66602 23V29C6.66602 29.8333 6.36254 30.542 5.7556 31.126C5.14865 31.71 4.41046 32.0013 3.54102 32ZM16.041 32C15.173 32 14.4355 31.7087 13.8285 31.126C13.2216 30.5433 12.9174 29.8347 12.916 29V13C12.916 12.1667 13.2202 11.4587 13.8285 10.876C14.4368 10.2933 15.1743 10.0013 16.041 10C16.9077 9.99867 17.6459 10.2907 18.2556 10.876C18.8653 11.4613 19.1688 12.1693 19.166 13V29C19.166 29.8333 18.8625 30.542 18.2556 31.126C17.6487 31.71 16.9105 32.0013 16.041 32ZM28.541 32C27.673 32 26.9355 31.7087 26.3285 31.126C25.7216 30.5433 25.4174 29.8347 25.416 29V3C25.416 2.16667 25.7202 1.45867 26.3285 0.876005C26.9368 0.293338 27.6743 0.00133788 28.541 4.54545e-06C29.4077 -0.00132879 30.1459 0.290672 30.7556 0.876005C31.3653 1.46134 31.6688 2.16934 31.666 3V29C31.666 29.8333 31.3625 30.542 30.7556 31.126C30.1487 31.71 29.4105 32.0013 28.541 32Z" fill="white"/>
</svg>
