<svg width="40" height="20" viewBox="0 0 40 20" fill="none" xmlns="http://www.w3.org/2000/svg">
<path d="M9.16667 19.1667C6.61111 19.1667 4.44444 18.2778 2.66667 16.5C0.888889 14.7222 0 12.5555 0 9.99999C0 7.44444 0.888889 5.27777 2.66667 3.5C4.44444 1.72222 6.61111 0.833328 9.16667 0.833328C10.1944 0.833328 11.1806 1.01388 12.125 1.37499C13.0694 1.73611 13.9167 2.24999 14.6667 2.91666L17.5 5.49999L15 7.74999L12.4167 5.41666C11.9722 5.02777 11.4722 4.72222 10.9167 4.49999C10.3611 4.27777 9.77778 4.16666 9.16667 4.16666C7.55556 4.16666 6.18056 4.7361 5.04167 5.87499C3.90278 7.01388 3.33333 8.38888 3.33333 9.99999C3.33333 11.6111 3.90278 12.9861 5.04167 14.125C6.18056 15.2639 7.55556 15.8333 9.16667 15.8333C9.77778 15.8333 10.3611 15.7222 10.9167 15.5C11.4722 15.2778 11.9722 14.9722 12.4167 14.5833L25.3333 2.91666C26.0833 2.24999 26.9306 1.73611 27.875 1.37499C28.8194 1.01388 29.8056 0.833328 30.8333 0.833328C33.3889 0.833328 35.5556 1.72222 37.3333 3.5C39.1111 5.27777 40 7.44444 40 9.99999C40 12.5555 39.1111 14.7222 37.3333 16.5C35.5556 18.2778 33.3889 19.1667 30.8333 19.1667C29.8056 19.1667 28.8194 18.9861 27.875 18.625C26.9306 18.2639 26.0833 17.75 25.3333 17.0833L22.5 14.5L25 12.25L27.5833 14.5833C28.0278 14.9722 28.5278 15.2778 29.0833 15.5C29.6389 15.7222 30.2222 15.8333 30.8333 15.8333C32.4444 15.8333 33.8194 15.2639 34.9583 14.125C36.0972 12.9861 36.6667 11.6111 36.6667 9.99999C36.6667 8.38888 36.0972 7.01388 34.9583 5.87499C33.8194 4.7361 32.4444 4.16666 30.8333 4.16666C30.2222 4.16666 29.6389 4.27777 29.0833 4.49999C28.5278 4.72222 28.0278 5.02777 27.5833 5.41666L14.6667 17.0833C13.9167 17.75 13.0694 18.2639 12.125 18.625C11.1806 18.9861 10.1944 19.1667 9.16667 19.1667Z" fill="white"/>
</svg>
