<svg width="39" height="39" viewBox="0 0 39 39" fill="none" xmlns="http://www.w3.org/2000/svg">
<path fill-rule="evenodd" clip-rule="evenodd" d="M27.2566 5.865L30.6879 9.29625C35.7298 14.34 38.2498 16.86 38.2498 19.9913C38.2498 23.1244 35.7298 25.6444 30.6879 30.6863C25.6441 35.73 23.1241 38.25 19.991 38.25C16.8598 38.25 14.3379 35.73 9.296 30.6881L5.86475 27.2569C2.96787 24.3581 1.5185 22.9106 0.980374 21.03C0.440374 19.1494 0.901624 17.1525 1.82412 13.1606L2.35475 10.8581C3.12912 7.49813 3.51725 5.81813 4.66662 4.66688C5.816 3.51563 7.49787 3.12938 10.8579 2.355L13.1604 1.8225C17.1541 0.901877 19.1491 0.440627 21.0298 0.978752C22.9104 1.51875 24.3597 2.96813 27.2566 5.865ZM17.8985 23.865C16.6366 22.605 16.646 20.7938 17.4016 19.3594C17.2146 19.0892 17.128 18.762 17.1571 18.4346C17.1861 18.1073 17.3289 17.8005 17.5606 17.5674C17.7923 17.3344 18.0983 17.1898 18.4255 17.1589C18.7527 17.128 19.0804 17.2126 19.3516 17.3981C19.9891 17.0606 20.6885 16.8806 21.386 16.8881C21.759 16.8916 22.1153 17.0431 22.3765 17.3093C22.6378 17.5755 22.7826 17.9345 22.7791 18.3075C22.7756 18.6805 22.6241 19.0368 22.358 19.298C22.0918 19.5593 21.7327 19.7041 21.3598 19.7006C20.9256 19.7167 20.5153 19.9033 20.2179 20.22C19.4923 20.9456 19.6816 21.6731 19.886 21.8775C20.0923 22.0819 20.8179 22.2713 21.5435 21.5456C23.0135 20.0756 25.5522 19.5881 27.1779 21.2138C28.4398 22.4756 28.4304 24.2869 27.6748 25.7213C27.8606 25.9915 27.9462 26.3182 27.9166 26.6449C27.8871 26.9716 27.7442 27.2777 27.5129 27.5102C27.2815 27.7427 26.9761 27.8869 26.6496 27.9181C26.323 27.9492 25.9959 27.8652 25.7248 27.6806C24.8834 28.1423 23.9073 28.2961 22.9648 28.1156C22.5992 28.0405 22.2785 27.8233 22.0732 27.5118C21.8678 27.2002 21.7947 26.8199 21.8698 26.4544C21.9448 26.0889 22.1621 25.7682 22.4736 25.5628C22.7851 25.3575 23.1655 25.2843 23.531 25.3594C23.8629 25.4288 24.3991 25.32 24.8585 24.8606C25.5841 24.1331 25.3948 23.4075 25.1904 23.2031C24.9841 22.9988 24.2585 22.8094 23.5329 23.535C22.0629 25.005 19.5241 25.4925 17.8985 23.865ZM15.7873 16.2994C16.1354 15.9511 16.4116 15.5376 16.6 15.0826C16.7883 14.6276 16.8852 14.1399 16.8852 13.6475C16.8851 13.155 16.788 12.6674 16.5994 12.2124C16.4109 11.7575 16.1346 11.3441 15.7863 10.9959C15.438 10.6478 15.0246 10.3716 14.5695 10.1832C14.1145 9.99486 13.6269 9.89794 13.1344 9.89803C12.6419 9.89812 12.1543 9.9952 11.6994 10.1837C11.2444 10.3723 10.831 10.6486 10.4829 10.9969C9.77972 11.7003 9.38479 12.6542 9.38497 13.6488C9.38514 14.6434 9.78041 15.5972 10.4838 16.3003C11.1872 17.0035 12.1411 17.3984 13.1357 17.3982C14.1303 17.398 15.0841 17.0028 15.7873 16.2994Z" fill="white"/>
</svg>
