<svg width="40" height="40" viewBox="0 0 40 40" fill="none" xmlns="http://www.w3.org/2000/svg">
<g clip-path="url(#clip0_821_4647)">
<path fill-rule="evenodd" clip-rule="evenodd" d="M21.7885 0.787495C21.5556 0.548615 21.2772 0.35877 20.9698 0.229147C20.6624 0.0995244 20.3321 0.0327454 19.9985 0.0327454C19.6649 0.0327454 19.3346 0.0995244 19.0272 0.229147C18.7198 0.35877 18.4414 0.548615 18.2085 0.787495L16.6135 2.42499C16.2996 2.74755 15.9044 2.97936 15.4696 3.09597C15.0349 3.21258 14.5767 3.20965 14.1435 3.08749L11.9435 2.46749C11.6224 2.37713 11.2864 2.35195 10.9554 2.39343C10.6244 2.43491 10.3051 2.54221 10.0162 2.70902C9.72728 2.87584 9.4747 3.09878 9.2733 3.36471C9.0719 3.63065 8.92577 3.93421 8.8435 4.25749L8.2785 6.47249C8.16773 6.90853 7.94135 7.3066 7.62323 7.62472C7.30511 7.94284 6.90704 8.16922 6.471 8.27999L4.256 8.84249C3.93271 8.92476 3.62916 9.0709 3.36322 9.27229C3.09728 9.47369 2.87434 9.72628 2.70753 10.0152C2.54072 10.3041 2.43341 10.6234 2.39193 10.9544C2.35045 11.2854 2.37563 11.6214 2.466 11.9425L3.086 14.145C3.20815 14.5782 3.21108 15.0364 3.09447 15.4711C2.97787 15.9059 2.74605 16.3011 2.4235 16.615L0.785999 18.21C0.54712 18.4429 0.357275 18.7213 0.227652 19.0287C0.098029 19.3361 0.03125 19.6664 0.03125 20C0.03125 20.3336 0.098029 20.6639 0.227652 20.9713C0.357275 21.2787 0.54712 21.5571 0.785999 21.79L2.4235 23.3875C2.74562 23.7012 2.97717 24.096 3.09376 24.5302C3.21035 24.9645 3.20767 25.4221 3.086 25.855L2.466 28.055C2.37563 28.3761 2.35045 28.7121 2.39193 29.0431C2.43341 29.3741 2.54072 29.6934 2.70753 29.9823C2.87434 30.2712 3.09728 30.5238 3.36322 30.7252C3.62916 30.9266 3.93271 31.0727 4.256 31.155L6.471 31.72C6.90704 31.8308 7.30511 32.0571 7.62323 32.3753C7.94135 32.6934 8.16773 33.0914 8.2785 33.5275L8.841 35.7425C8.92299 36.066 9.06893 36.3698 9.27021 36.636C9.47149 36.9023 9.72404 37.1255 10.013 37.2925C10.3019 37.4596 10.6213 37.5671 10.9525 37.6088C11.2836 37.6504 11.6197 37.6253 11.941 37.535L14.1435 36.915C14.5765 36.7925 15.0345 36.7892 15.4692 36.9054C15.904 37.0215 16.2993 37.2529 16.6135 37.575L18.2085 39.2125C18.4414 39.4514 18.7198 39.6412 19.0272 39.7708C19.3346 39.9005 19.6649 39.9672 19.9985 39.9672C20.3321 39.9672 20.6624 39.9005 20.9698 39.7708C21.2772 39.6412 21.5556 39.4514 21.7885 39.2125L23.386 37.575C23.7 37.2533 24.0949 37.0222 24.5291 36.9061C24.9633 36.7899 25.4209 36.793 25.8535 36.915L28.0535 37.535C28.3748 37.6253 28.7109 37.6504 29.042 37.6088C29.3732 37.5671 29.6926 37.4596 29.9815 37.2925C30.2705 37.1255 30.523 36.9023 30.7243 36.636C30.9256 36.3698 31.0715 36.066 31.1535 35.7425L31.7185 33.5275C31.8293 33.0914 32.0556 32.6934 32.3738 32.3753C32.6919 32.0571 33.09 31.8308 33.526 31.72L35.741 31.1575C36.0645 31.0755 36.3683 30.9296 36.6345 30.7283C36.9008 30.527 37.124 30.2745 37.291 29.9855C37.4581 29.6966 37.5656 29.3772 37.6073 29.046C37.6489 28.7149 37.6238 28.3788 37.5335 28.0575L36.9135 25.8575C36.791 25.4245 36.7877 24.9665 36.9039 24.5317C37.02 24.097 37.2514 23.7017 37.5735 23.3875L39.211 21.79C39.4499 21.5571 39.6397 21.2787 39.7693 20.9713C39.899 20.6639 39.9657 20.3336 39.9657 20C39.9657 19.6664 39.899 19.3361 39.7693 19.0287C39.6397 18.7213 39.4499 18.4429 39.211 18.21L37.5735 16.615C37.2514 16.3008 37.02 15.9055 36.9039 15.4707C36.7877 15.036 36.791 14.578 36.9135 14.145L37.5335 11.945C37.6238 11.6237 37.6489 11.2876 37.6073 10.9565C37.5656 10.6253 37.4581 10.3059 37.291 10.017C37.124 9.72803 36.9008 9.47549 36.6345 9.27421C36.3683 9.07293 36.0645 8.92699 35.741 8.84499L33.526 8.27999C33.09 8.16922 32.6919 7.94284 32.3738 7.62472C32.0556 7.3066 31.8293 6.90853 31.7185 6.47249L31.156 4.25749C31.0737 3.93421 30.9276 3.63065 30.7262 3.36471C30.5248 3.09878 30.2722 2.87584 29.9833 2.70902C29.6944 2.54221 29.3751 2.43491 29.0441 2.39343C28.7131 2.35195 28.3771 2.37713 28.056 2.46749L25.856 3.08749C25.4224 3.21013 24.9638 3.21331 24.5285 3.09669C24.0933 2.98007 23.6977 2.74799 23.3835 2.42499L21.7885 0.787495ZM29.431 15.725C29.789 15.3795 29.9952 14.906 30.0041 14.4086C30.013 13.9111 29.8239 13.4305 29.4785 13.0725C29.1331 12.7145 28.6595 12.5083 28.1621 12.4994C27.6646 12.4905 27.184 12.6795 26.826 13.025L16.491 23.005L13.1985 19.7175C12.8461 19.3661 12.3685 19.1691 11.8708 19.1698C11.3732 19.1705 10.8962 19.3688 10.5447 19.7212C10.1933 20.0737 9.99631 20.5512 9.99701 21.0489C9.99772 21.5466 10.1961 22.0236 10.5485 22.375L15.146 26.96C15.4932 27.3069 15.9626 27.5038 16.4534 27.5085C16.9442 27.5132 17.4172 27.3252 17.771 26.985L29.431 15.725Z" fill="white"/>
</g>
<defs>
<clipPath id="clip0_821_4647">
<rect width="40" height="40" fill="white"/>
</clipPath>
</defs>
</svg>
