<svg width="35" height="31" viewBox="0 0 35 31" fill="none" xmlns="http://www.w3.org/2000/svg">
<path d="M17.0688 30.5V28.625H30.625V14.6637C30.625 11.1512 29.3337 8.21812 26.7512 5.86438C24.1675 3.50938 21.0837 2.33188 17.5 2.33188C13.9163 2.33188 10.8325 3.50938 8.24875 5.86438C5.665 8.21938 4.37375 11.1525 4.375 14.6637V25.3438H0.625V16.52H2.5L2.53188 14.225C2.58938 12.2625 3.0325 10.4469 3.86125 8.77812C4.69 7.10938 5.78 5.6575 7.13125 4.4225C8.4825 3.1875 10.0544 2.225 11.8469 1.535C13.6394 0.845 15.5238 0.5 17.5 0.5C19.4762 0.5 21.3594 0.845 23.1494 1.535C24.9344 2.225 26.505 3.18625 27.8612 4.41875C29.2175 5.65 30.3075 7.1 31.1313 8.76875C31.9563 10.4362 32.4013 12.2456 32.4663 14.1969L32.4981 16.5219H34.3731V25.3438H32.4981V30.5H17.0688ZM12.5969 18.3856C12.2094 18.3856 11.8719 18.2544 11.5844 17.9919C11.2969 17.7294 11.1531 17.4044 11.1531 17.0169C11.1531 16.6294 11.2969 16.2975 11.5844 16.0212C11.8719 15.745 12.2094 15.6075 12.5969 15.6087C12.9844 15.6087 13.3212 15.7431 13.6075 16.0119C13.895 16.2819 14.0388 16.6162 14.0388 17.015C14.0388 17.4025 13.895 17.7275 13.6075 17.99C13.32 18.2525 12.9825 18.3838 12.595 18.3838M22.405 18.3838C22.0175 18.3838 21.68 18.2525 21.3925 17.99C21.105 17.7275 20.9613 17.4025 20.9613 17.015C20.9613 16.6275 21.105 16.2962 21.3925 16.0212C21.68 15.7463 22.0175 15.6087 22.405 15.6087C22.7925 15.6087 23.1294 15.7431 23.4156 16.0119C23.7019 16.2806 23.8456 16.615 23.8469 17.015C23.8469 17.4025 23.7031 17.7275 23.4156 17.99C23.1281 18.2525 22.7906 18.3838 22.4031 18.3838M7.59625 15.4062C7.42625 12.5988 8.33063 10.2056 10.3094 8.22688C12.2869 6.24813 14.7163 5.25875 17.5975 5.25875C20.0163 5.25875 22.16 5.98563 24.0288 7.43938C25.8975 8.89313 27.0394 10.8025 27.4544 13.1675C24.9706 13.1362 22.6656 12.5025 20.5394 11.2662C18.4131 10.03 16.7819 8.31125 15.6456 6.11C15.1931 8.27375 14.2525 10.17 12.8237 11.7987C11.3937 13.4275 9.65125 14.63 7.59625 15.4062Z" fill="white"/>
</svg>
