<svg width="40" height="40" viewBox="0 0 40 40" fill="none" xmlns="http://www.w3.org/2000/svg">
<path d="M10 11.25C9.01109 11.25 8.04439 10.9568 7.22215 10.4074C6.3999 9.85794 5.75904 9.07705 5.3806 8.16342C5.00216 7.24979 4.90315 6.24446 5.09607 5.27455C5.289 4.30465 5.7652 3.41373 6.46447 2.71447C7.16373 2.01521 8.05464 1.539 9.02455 1.34608C9.99445 1.15315 10.9998 1.25217 11.9134 1.6306C12.827 2.00904 13.6079 2.64991 14.1573 3.47215C14.7068 4.2944 15 5.2611 15 6.25C15 7.57609 14.4732 8.84785 13.5355 9.78554C12.5979 10.7232 11.3261 11.25 10 11.25ZM10 3.75C9.50555 3.75 9.0222 3.89662 8.61107 4.17133C8.19995 4.44603 7.87952 4.83648 7.6903 5.29329C7.50108 5.75011 7.45157 6.25278 7.54804 6.73773C7.6445 7.22268 7.8826 7.66814 8.23223 8.01777C8.58186 8.3674 9.02732 8.6055 9.51227 8.70197C9.99723 8.79843 10.4999 8.74892 10.9567 8.5597C11.4135 8.37048 11.804 8.05005 12.0787 7.63893C12.3534 7.2278 12.5 6.74446 12.5 6.25C12.5 5.58696 12.2366 4.95108 11.7678 4.48224C11.2989 4.01339 10.663 3.75 10 3.75ZM30 11.25C29.0111 11.25 28.0444 10.9568 27.2221 10.4074C26.3999 9.85794 25.759 9.07705 25.3806 8.16342C25.0022 7.24979 24.9031 6.24446 25.0961 5.27455C25.289 4.30465 25.7652 3.41373 26.4645 2.71447C27.1637 2.01521 28.0546 1.539 29.0245 1.34608C29.9945 1.15315 30.9998 1.25217 31.9134 1.6306C32.827 2.00904 33.6079 2.64991 34.1573 3.47215C34.7068 4.2944 35 5.2611 35 6.25C35 7.57609 34.4732 8.84785 33.5355 9.78554C32.5979 10.7232 31.3261 11.25 30 11.25ZM30 3.75C29.5055 3.75 29.0222 3.89662 28.6111 4.17133C28.2 4.44603 27.8795 4.83648 27.6903 5.29329C27.5011 5.75011 27.4516 6.25278 27.548 6.73773C27.6445 7.22268 27.8826 7.66814 28.2322 8.01777C28.5819 8.3674 29.0273 8.6055 29.5123 8.70197C29.9972 8.79843 30.4999 8.74892 30.9567 8.5597C31.4135 8.37048 31.804 8.05005 32.0787 7.63893C32.3534 7.2278 32.5 6.74446 32.5 6.25C32.5 5.58696 32.2366 4.95108 31.7678 4.48224C31.2989 4.01339 30.663 3.75 30 3.75ZM32.5 37.5H27.5C26.837 37.5 26.2011 37.2366 25.7322 36.7678C25.2634 36.2989 25 35.663 25 35V26.25H27.5V35H32.5V23.75H35V16.25C35 15.9185 34.8683 15.6005 34.6339 15.3661C34.3995 15.1317 34.0815 15 33.75 15H25.725L20 25L14.275 15H6.25C5.91848 15 5.60054 15.1317 5.36612 15.3661C5.1317 15.6005 5 15.9185 5 16.25V23.75H7.5V35H12.5V26.25H15V35C15 35.663 14.7366 36.2989 14.2678 36.7678C13.7989 37.2366 13.163 37.5 12.5 37.5H7.5C6.83696 37.5 6.20107 37.2366 5.73223 36.7678C5.26339 36.2989 5 35.663 5 35V26.25C4.33696 26.25 3.70107 25.9866 3.23223 25.5178C2.76339 25.0489 2.5 24.413 2.5 23.75V16.25C2.5 15.2554 2.89509 14.3016 3.59835 13.5984C4.30161 12.8951 5.25544 12.5 6.25 12.5H15.725L20 20L24.275 12.5H33.75C34.7446 12.5 35.6984 12.8951 36.4016 13.5984C37.1049 14.3016 37.5 15.2554 37.5 16.25V23.75C37.5 24.413 37.2366 25.0489 36.7678 25.5178C36.2989 25.9866 35.663 26.25 35 26.25V35C35 35.663 34.7366 36.2989 34.2678 36.7678C33.7989 37.2366 33.163 37.5 32.5 37.5Z" fill="white"/>
</svg>
