<svg width="89" height="89" viewBox="0 0 89 89" fill="none" xmlns="http://www.w3.org/2000/svg">
<circle cx="44.5" cy="44.5" r="44.5" fill="#4ABA5D"/>
<path d="M69.9133 23.7167L61.0954 32.0385L69.5304 46.2359L69.9133 45.7599V23.7167ZM19.0859 23.8381V47.959C19.5643 48.0211 20.1391 48.0554 20.7191 48.0615C21.9866 48.0748 23.0314 47.9921 23.6182 47.9393L29.2407 33.7125L19.0859 23.8381ZM60.6399 35.035L59.8881 35.5215C59.8721 35.5319 59.3156 35.8777 59.1521 35.9796L58.0197 36.6651L58.0357 36.6747C57.511 37.0012 57.3651 37.093 56.7696 37.4628C56.4674 37.6504 56.4599 37.6548 56.1733 37.8328C54.0068 36.6681 51.6559 35.773 48.9125 35.0691C45.4622 36.1115 41.8071 37.6199 38.1574 39.0351C39.6726 40.8597 41.3565 41.4538 43.0527 41.475C45.0196 41.4996 47.0303 40.6443 48.415 39.6861L49.2052 39.1393L49.9981 40.2851L62.3262 49.1831L67.1433 45.9811L60.6399 35.035ZM30.6691 35.3276L25.8248 47.5846L27.6027 48.9517L30.891 45.2245L31.1544 44.9261L31.5517 44.9013C31.7118 44.8913 31.8699 44.8866 32.0258 44.8874C33.1162 44.8945 34.0911 45.1774 34.8223 45.8228C35.3639 46.3003 35.724 46.9361 35.9329 47.6722L36.1763 47.6571C37.4571 47.577 38.6111 47.8413 39.447 48.5786C40.2828 49.3161 40.6888 50.4284 40.7689 51.7094L40.7764 51.8247C41.4641 51.9546 42.0797 52.2254 42.5802 52.667C43.4161 53.4044 43.8221 54.5164 43.9022 55.7975L43.9232 56.1306C43.9914 56.1522 44.0591 56.1757 44.1261 56.2009L44.3432 55.8962L44.9273 55.0764L45.2276 54.6546L46.0103 55.2123L52.3561 59.733C53.0463 59.5628 53.4577 59.2978 53.6865 58.9763C53.9158 58.6547 54.0318 58.1787 53.9667 57.47L46.3578 52.021L45.5764 51.4614L46.1306 50.6877L46.8428 49.6877L47.6255 50.2454L56.2037 56.356C56.8939 56.1859 57.3056 55.921 57.5345 55.5995C57.7634 55.2781 57.8794 54.8032 57.8148 54.0958L47.9485 47.0964L47.1647 46.5401L48.2767 44.9725L49.0608 45.5286L58.9288 52.5297C59.6197 52.3595 60.0315 52.0945 60.2607 51.7728C60.49 51.4509 60.6059 50.9745 60.5404 50.2645L48.7476 41.7531C47.1828 42.6808 45.181 43.424 43.0288 43.3971C40.5102 43.3656 37.8161 42.1621 35.8343 39.1205C35.7559 39.0003 35.7055 38.864 35.6867 38.7216C35.6679 38.5793 35.6812 38.4346 35.7257 38.2981C35.7702 38.1616 35.8447 38.0368 35.9437 37.9328C36.0428 37.8289 36.1638 37.7485 36.298 37.6975C37.6877 37.1695 39.0917 36.6115 40.4991 36.058L30.6693 35.3283L30.6691 35.3276ZM32.0468 46.8193L26.9679 52.5758C27.0669 53.2961 27.2925 53.7442 27.5965 54.0124C27.9005 54.2807 28.3734 54.4486 29.1004 54.4571L34.1792 48.7008C34.0802 47.9803 33.8546 47.532 33.5506 47.2638C33.2466 46.9956 32.7739 46.8277 32.0467 46.8194L32.0468 46.8193ZM36.6712 49.5753L30.9358 56.0761C31.0346 56.7965 31.2604 57.2448 31.5643 57.513C31.8686 57.781 32.3411 57.949 33.0683 57.9572L38.8037 51.4566C38.7049 50.7361 38.4791 50.288 38.1751 50.0197C37.8711 49.7514 37.3985 49.5835 36.6713 49.5751L36.6712 49.5753ZM39.8042 53.6635L34.7257 59.42C34.8247 60.1403 35.0503 60.5885 35.3543 60.8568C35.6584 61.125 36.1311 61.2928 36.8582 61.3012L41.9369 55.5454C41.8379 54.8246 41.6123 54.3764 41.3083 54.1081C41.0043 53.8399 40.5316 53.6721 39.8044 53.6637L39.8042 53.6635ZM42.4419 57.8425L38.2994 62.5707C38.3982 63.2926 38.6238 63.7413 38.9281 64.0097C39.2319 64.2777 39.7041 64.4456 40.4302 64.4542L44.5729 59.726C44.474 59.0044 44.2482 58.5557 43.9439 58.287C43.6402 58.019 43.1681 57.8514 42.442 57.8426L42.4419 57.8425ZM46.2157 58.354C46.3966 58.8473 46.5011 59.394 46.5375 59.9762L46.5623 60.3717L45.6785 61.3806L48.5321 63.4133C49.2223 63.2431 49.6336 62.9782 49.8625 62.6567C50.0916 62.3353 50.2078 61.8597 50.1432 61.1519L46.2158 58.3542L46.2157 58.354Z" fill="white"/>
</svg>
