<svg width="89" height="89" viewBox="0 0 89 89" fill="none" xmlns="http://www.w3.org/2000/svg">
<circle cx="44.5" cy="44.5" r="44.5" fill="#40B554"/>
<path d="M34.4302 46.9147V63.0428C34.4302 63.9974 34.051 64.9128 33.376 65.5878C32.7011 66.2628 31.7856 66.642 30.831 66.642H26.5484C25.5939 66.642 24.6784 66.2628 24.0034 65.5878C23.3284 64.9128 22.9492 63.9974 22.9492 63.0428V46.9147C22.9492 45.958 23.3277 45.0402 24.002 44.3616C24.6763 43.683 25.5918 43.2988 26.5484 43.2927H30.831C31.7877 43.2988 32.7031 43.683 33.3774 44.3616C34.0518 45.0402 34.4302 45.958 34.4302 46.9147ZM50.2394 36.4588V63.1111C50.2334 64.0678 49.8491 64.9832 49.1705 65.6575C48.4919 66.3319 47.5741 66.7104 46.6174 66.7103H42.3576C41.4009 66.7104 40.4831 66.3319 39.8045 65.6575C39.1259 64.9832 38.7416 64.0678 38.7356 63.1111V36.4588C38.7356 35.4982 39.1172 34.5769 39.7964 33.8977C40.4757 33.2184 41.397 32.8368 42.3576 32.8368H46.6174C47.578 32.8368 48.4993 33.2184 49.1785 33.8977C49.8578 34.5769 50.2394 35.4982 50.2394 36.4588ZM66.0485 25.9118V63.1111C66.0425 64.0678 65.6583 64.9832 64.9797 65.6575C64.3011 66.3319 63.3832 66.7104 62.4266 66.7103H58.1667C57.2101 66.7104 56.2922 66.3319 55.6136 65.6575C54.935 64.9832 54.5508 64.0678 54.5448 63.1111V25.9118C54.5448 24.9512 54.9263 24.0299 55.6056 23.3506C56.2849 22.6714 57.2061 22.2898 58.1667 22.2898H62.4266C63.3872 22.2898 64.3084 22.6714 64.9877 23.3506C65.6669 24.0299 66.0485 24.9512 66.0485 25.9118Z" fill="white"/>
</svg>
