<svg width="31" height="33" viewBox="0 0 31 33" fill="none" xmlns="http://www.w3.org/2000/svg">
<path d="M6.09535 14.6021C8.52002 19.6018 12.4264 23.6828 17.1916 26.2444L20.8959 22.3578C21.3506 21.8808 22.0241 21.7218 22.6134 21.9338C24.4993 22.5874 26.5367 22.9408 28.6246 22.9408C29.5507 22.9408 30.3084 23.7358 30.3084 24.7074V30.8731C30.3084 31.8448 29.5507 32.6398 28.6246 32.6398C12.8137 32.6398 0 19.1954 0 2.60643C0 1.63477 0.757709 0.839767 1.6838 0.839767H7.57709C8.50318 0.839767 9.26089 1.63477 9.26089 2.60643C9.26089 4.81477 9.59765 6.93477 10.2207 8.91343C10.4059 9.53177 10.2712 10.2208 9.79971 10.7154L6.09535 14.6021Z" fill="white"/>
</svg>
