<svg width="41" height="29" viewBox="0 0 41 29" fill="none" xmlns="http://www.w3.org/2000/svg">
<path d="M34.8327 7.33329H29.4577V0.166626H0.791016V23.4583H4.37435C4.37435 26.4325 6.77518 28.8333 9.74935 28.8333C12.7235 28.8333 15.1243 26.4325 15.1243 23.4583H25.8743C25.8743 26.4325 28.2752 28.8333 31.2493 28.8333C34.2235 28.8333 36.6244 26.4325 36.6244 23.4583H40.2077V14.5L34.8327 7.33329ZM9.74935 25.25C8.76393 25.25 7.95768 24.4437 7.95768 23.4583C7.95768 22.4729 8.76393 21.6666 9.74935 21.6666C10.7348 21.6666 11.541 22.4729 11.541 23.4583C11.541 24.4437 10.7348 25.25 9.74935 25.25ZM33.9369 10.0208L37.4485 14.5H29.4577V10.0208H33.9369ZM31.2493 25.25C30.2639 25.25 29.4577 24.4437 29.4577 23.4583C29.4577 22.4729 30.2639 21.6666 31.2493 21.6666C32.2348 21.6666 33.041 22.4729 33.041 23.4583C33.041 24.4437 32.2348 25.25 31.2493 25.25Z" fill="white"/>
</svg>
