<svg width="41" height="25" viewBox="0 0 41 25" fill="none" xmlns="http://www.w3.org/2000/svg">
<path d="M0.791016 0.75V20.4583H2.58268C2.58268 21.4087 2.96021 22.3201 3.63222 22.9921C4.30422 23.6641 5.21566 24.0417 6.16602 24.0417C7.11637 24.0417 8.02781 23.6641 8.69982 22.9921C9.37182 22.3201 9.74935 21.4087 9.74935 20.4583H31.2493C31.2493 21.4087 31.6269 22.3201 32.2989 22.9921C32.9709 23.6641 33.8823 24.0417 34.8327 24.0417C35.783 24.0417 36.6945 23.6641 37.3665 22.9921C38.0385 22.3201 38.416 21.4087 38.416 20.4583H40.2077V0.75H0.791016ZM36.6244 16.875H33.041V6.125H29.4577V16.875H25.8743V6.125H22.291V16.875H18.7077V6.125H15.1243V16.875H11.541V6.125H7.95768V16.875H4.37435V4.33333H36.6244V16.875Z" fill="white"/>
</svg>
