<svg width="26" height="26" viewBox="0 0 26 26" fill="none" xmlns="http://www.w3.org/2000/svg">
<path d="M21.8125 3.81698C20.6663 2.65961 19.3013 1.74194 17.7969 1.11743C16.2925 0.492928 14.6789 0.174084 13.05 0.17948C6.225 0.17948 0.6625 5.74198 0.6625 12.567C0.6625 14.7545 1.2375 16.8795 2.3125 18.7545L0.5625 25.1795L7.125 23.4545C8.9375 24.442 10.975 24.967 13.05 24.967C19.875 24.967 25.4375 19.4045 25.4375 12.5795C25.4375 9.26698 24.15 6.15448 21.8125 3.81698ZM13.05 22.867C11.2 22.867 9.3875 22.367 7.8 21.4295L7.425 21.2045L3.525 22.2295L4.5625 18.4295L4.3125 18.042C3.28443 16.4008 2.73866 14.5036 2.7375 12.567C2.7375 6.89198 7.3625 2.26698 13.0375 2.26698C15.7875 2.26698 18.375 3.34198 20.3125 5.29198C21.272 6.24681 22.0324 7.38266 22.5495 8.63364C23.0667 9.88462 23.3302 11.2258 23.325 12.5795C23.35 18.2545 18.725 22.867 13.05 22.867ZM18.7 15.167C18.3875 15.017 16.8625 14.267 16.5875 14.1545C16.3 14.0545 16.1 14.0045 15.8875 14.3045C15.675 14.617 15.0875 15.317 14.9125 15.517C14.7375 15.7295 14.55 15.7545 14.2375 15.592C13.925 15.442 12.925 15.1045 11.75 14.0545C10.825 13.2295 10.2125 12.217 10.025 11.9045C9.85 11.592 10 11.4295 10.1625 11.267C10.3 11.1295 10.475 10.9045 10.625 10.7295C10.775 10.5545 10.8375 10.417 10.9375 10.217C11.0375 10.0045 10.9875 9.82948 10.9125 9.67948C10.8375 9.52948 10.2125 8.00448 9.9625 7.37948C9.7125 6.77948 9.45 6.85448 9.2625 6.84198H8.6625C8.45 6.84198 8.125 6.91698 7.8375 7.22948C7.5625 7.54198 6.7625 8.29198 6.7625 9.81698C6.7625 11.342 7.875 12.817 8.025 13.017C8.175 13.2295 10.2125 16.3545 13.3125 17.692C14.05 18.017 14.625 18.2045 15.075 18.342C15.8125 18.5795 16.4875 18.542 17.025 18.467C17.625 18.3795 18.8625 17.717 19.1125 16.992C19.375 16.267 19.375 15.6545 19.2875 15.517C19.2 15.3795 19.0125 15.317 18.7 15.167Z" fill="white"/>
</svg>
