<svg width="24" height="27" viewBox="0 0 24 27" fill="none" xmlns="http://www.w3.org/2000/svg">
<path d="M13.7614 26.4295L9.70301 26.4151C4.35679 26.4151 0 21.8881 0 16.324V3.55269C0 1.96549 1.23759 0.679535 2.7651 0.679535C4.29262 0.679535 5.5302 1.96549 5.5302 3.55269V16.324C5.5302 18.7209 7.40662 20.6688 9.7117 20.6688L13.77 20.6833C16.07 20.6833 17.9498 18.7552 17.9498 16.3853C17.9498 14.0153 16.07 12.0891 13.7614 12.0891H11.1767C9.64922 12.0891 8.41164 10.8031 8.41164 9.21596C8.41164 7.62876 9.64922 6.3428 11.1767 6.3428H13.7614C19.1197 6.3428 23.48 10.8482 23.48 16.3853C23.48 21.9223 19.1197 26.4277 13.7614 26.4277V26.4295Z" fill="white"/>
</svg>
