<svg width="30" height="31" viewBox="0 0 30 31" fill="none" xmlns="http://www.w3.org/2000/svg">
<path d="M15 0.679535C6.72 0.679535 0 7.39954 0 15.6795C0 23.9595 6.72 30.6795 15 30.6795C23.28 30.6795 30 23.9595 30 15.6795C30 7.39954 23.28 0.679535 15 0.679535ZM21.96 10.8795C21.735 13.2495 20.76 19.0095 20.265 21.6645C20.055 22.7895 19.635 23.1645 19.245 23.2095C18.375 23.2845 17.715 22.6395 16.875 22.0845C15.555 21.2145 14.805 20.6745 13.53 19.8345C12.045 18.8595 13.005 18.3195 13.86 17.4495C14.085 17.2245 17.925 13.7295 18 13.4145C18.0104 13.3668 18.009 13.3173 17.996 13.2702C17.9829 13.2232 17.9585 13.18 17.925 13.1445C17.835 13.0695 17.715 13.0995 17.61 13.1145C17.475 13.1445 15.375 14.5395 11.28 17.2995C10.68 17.7045 10.14 17.9145 9.66 17.8995C9.12 17.8845 8.1 17.5995 7.335 17.3445C6.39 17.0445 5.655 16.8795 5.715 16.3545C5.745 16.0845 6.12 15.8145 6.825 15.5295C11.205 13.6245 14.115 12.3645 15.57 11.7645C19.74 10.0245 20.595 9.72453 21.165 9.72453C21.285 9.72453 21.57 9.75453 21.75 9.90453C21.9 10.0245 21.945 10.1895 21.96 10.3095C21.945 10.3995 21.975 10.6695 21.96 10.8795Z" fill="white"/>
</svg>
