<svg width="30" height="31" viewBox="0 0 30 31" fill="none" xmlns="http://www.w3.org/2000/svg">
<path d="M20.6294 9.24618C21.1996 9.24618 21.7552 9.29618 22.2962 9.37951C21.302 4.42952 16.7404 0.679535 11.2577 0.679535C5.04405 0.679535 0 5.47952 0 11.3962C0 14.8128 1.68135 17.8295 4.29841 19.7961L2.82174 23.1795L6.85699 21.1961C7.71959 21.5461 8.62606 21.8295 9.59101 21.9795C9.45942 21.3295 9.38632 20.6628 9.38632 19.9628C9.3717 14.0628 14.4158 9.24618 20.6294 9.24618ZM15.0006 5.49619C15.1849 5.49619 15.3674 5.53757 15.5377 5.61798C15.708 5.69839 15.8627 5.81624 15.993 5.96482C16.1234 6.11339 16.2268 6.28977 16.2973 6.48389C16.3678 6.67801 16.4041 6.88607 16.4041 7.09618C16.4041 7.3063 16.3678 7.51435 16.2973 7.70847C16.2268 7.9026 16.1234 8.07898 15.993 8.22755C15.8627 8.37612 15.708 8.49398 15.5377 8.57439C15.3674 8.65479 15.1849 8.69618 15.0006 8.69618C14.6283 8.69618 14.2713 8.52761 14.0081 8.22755C13.7449 7.92749 13.597 7.52053 13.597 7.09618C13.597 6.67184 13.7449 6.26487 14.0081 5.96482C14.2713 5.66476 14.6283 5.49619 15.0006 5.49619ZM7.50029 8.71284C7.12804 8.71284 6.77104 8.54427 6.50782 8.24422C6.2446 7.94416 6.09672 7.53719 6.09672 7.11285C6.09672 6.6885 6.2446 6.28154 6.50782 5.98148C6.77104 5.68142 7.12804 5.51285 7.50029 5.51285C7.87253 5.51285 8.22954 5.68142 8.49275 5.98148C8.75597 6.28154 8.90385 6.6885 8.90385 7.11285C8.90385 7.53719 8.75597 7.94416 8.49275 8.24422C8.22954 8.54427 7.87253 8.71284 7.50029 8.71284Z" fill="white"/>
<path d="M30 19.9629C30 15.2296 25.8039 11.3963 20.6283 11.3963C15.4527 11.3963 11.2566 15.2296 11.2566 19.9629C11.2566 24.6962 15.4527 28.5295 20.6283 28.5295C21.4763 28.5295 22.295 28.3962 23.0699 28.1962L28.1286 30.6795L26.3741 26.6795C28.5672 25.1129 30 22.7129 30 19.9629ZM17.8066 19.4296C17.529 19.4296 17.2576 19.3357 17.0268 19.1599C16.796 18.9841 16.6161 18.7342 16.5098 18.4419C16.4036 18.1495 16.3758 17.8278 16.43 17.5174C16.4841 17.2071 16.6178 16.922 16.8141 16.6982C17.0104 16.4744 17.2605 16.3221 17.5327 16.2603C17.805 16.1986 18.0872 16.2303 18.3437 16.3514C18.6001 16.4725 18.8193 16.6775 18.9736 16.9407C19.1278 17.2038 19.2101 17.5131 19.2101 17.8296C19.2247 18.7129 18.5814 19.4296 17.8066 19.4296ZM23.4354 19.4296C23.0632 19.4296 22.7062 19.261 22.443 18.9609C22.1797 18.6609 22.0319 18.2539 22.0319 17.8296C22.0319 17.4052 22.1797 16.9983 22.443 16.6982C22.7062 16.3981 23.0632 16.2296 23.4354 16.2296C23.8077 16.2296 24.1647 16.3981 24.4279 16.6982C24.6911 16.9983 24.839 17.4052 24.839 17.8296C24.839 18.2539 24.6911 18.6609 24.4279 18.9609C24.1647 19.261 23.8077 19.4296 23.4354 19.4296Z" fill="white"/>
</svg>
