<svg width="29" height="35" viewBox="0 0 29 35" fill="none" xmlns="http://www.w3.org/2000/svg">
<path d="M14.3333 0C7.16667 0 0 0.895833 0 7.16667V24.1875C0 25.8506 0.660676 27.4456 1.83668 28.6217C3.01269 29.7977 4.6077 30.4583 6.27083 30.4583L3.58333 33.1458V34.0417H7.57875L11.1621 30.4583H17.9167L21.5 34.0417H25.0833V33.1458L22.3958 30.4583C24.059 30.4583 25.654 29.7977 26.83 28.6217C28.006 27.4456 28.6667 25.8506 28.6667 24.1875V7.16667C28.6667 0.895833 22.2525 0 14.3333 0ZM6.27083 26.875C5.55806 26.875 4.87449 26.5919 4.37048 26.0878C3.86648 25.5838 3.58333 24.9003 3.58333 24.1875C3.58333 23.4747 3.86648 22.7912 4.37048 22.2872C4.87449 21.7831 5.55806 21.5 6.27083 21.5C6.9836 21.5 7.66718 21.7831 8.17118 22.2872C8.67519 22.7912 8.95833 23.4747 8.95833 24.1875C8.95833 24.9003 8.67519 25.5838 8.17118 26.0878C7.66718 26.5919 6.9836 26.875 6.27083 26.875ZM12.5417 14.3333H3.58333V7.16667H12.5417V14.3333ZM16.125 14.3333V7.16667H25.0833V14.3333H16.125ZM22.3958 26.875C21.6831 26.875 20.9995 26.5919 20.4955 26.0878C19.9915 25.5838 19.7083 24.9003 19.7083 24.1875C19.7083 23.4747 19.9915 22.7912 20.4955 22.2872C20.9995 21.7831 21.6831 21.5 22.3958 21.5C23.1086 21.5 23.7922 21.7831 24.2962 22.2872C24.8002 22.7912 25.0833 23.4747 25.0833 24.1875C25.0833 24.9003 24.8002 25.5838 24.2962 26.0878C23.7922 26.5919 23.1086 26.875 22.3958 26.875Z" fill="white"/>
</svg>
