<svg width="37" height="40" viewBox="0 0 37 40" fill="none" xmlns="http://www.w3.org/2000/svg">
<path fill-rule="evenodd" clip-rule="evenodd" d="M22.461 28.8487C23.3924 28.383 24.4141 28.1259 25.455 28.0953C26.4959 28.0647 27.531 28.2612 28.4882 28.6713L28.8716 28.8505L33.6338 31.2298C34.0429 31.4341 34.3584 31.787 34.5157 32.2163C34.6731 32.6456 34.6603 33.1188 34.4801 33.539C34.2999 33.9592 33.9658 34.2946 33.5463 34.4765C33.1269 34.6585 32.6537 34.6731 32.2238 34.5175L32.0321 34.4351L27.268 32.054C26.8213 31.8306 26.3328 31.7032 25.8339 31.6797C25.3349 31.6563 24.8366 31.7374 24.3709 31.9178L24.0627 32.054L21.7049 33.2347C20.7731 33.7004 19.751 33.9573 18.7098 33.9876C17.6686 34.018 16.6333 33.8209 15.6759 33.4103L15.2943 33.2347L12.9347 32.054C12.4879 31.8306 11.9994 31.7032 11.5005 31.6797C11.0016 31.6563 10.5033 31.7374 10.0376 31.9178L9.7294 32.054L4.96715 34.4369C4.55803 34.6438 4.08516 34.686 3.64588 34.5548C3.20659 34.4236 2.83431 34.129 2.60567 33.7316C2.37702 33.3342 2.30941 32.8643 2.41674 32.4186C2.52407 31.9729 2.79818 31.5853 3.18265 31.3355L3.3654 31.2298L8.12765 28.8487C9.05907 28.383 10.0808 28.1259 11.1217 28.0953C12.1626 28.0647 13.1976 28.2612 14.1548 28.6713L14.5382 28.8505L16.8961 30.0294C17.3431 30.253 17.8319 30.3807 18.3311 30.4041C18.8304 30.4276 19.329 30.3463 19.795 30.1656L20.1014 30.0294L22.461 28.8487ZM20.2913 0.583374C20.7665 0.583374 21.2222 0.772138 21.5582 1.10814C21.8942 1.44414 22.0829 1.89986 22.0829 2.37504V4.74004L28.0474 5.73262C28.8838 5.87254 29.6434 6.30453 30.1913 6.95178C30.7391 7.59903 31.0397 8.4196 31.0395 9.26758V15.4166L34.7303 16.6457C35.0243 16.7437 35.2947 16.9017 35.5244 17.1097C35.7542 17.3176 35.9383 17.5709 36.0651 17.8537C36.1919 18.1364 36.2586 18.4424 36.2611 18.7523C36.2636 19.0621 36.2017 19.3691 36.0794 19.6539L32.1933 28.7197L28.8716 27.057C27.8764 26.5594 26.779 26.3003 25.6663 26.3003C24.5536 26.3003 23.4562 26.5594 22.461 27.057L20.1014 28.2377C19.6038 28.4866 19.0551 28.6161 18.4987 28.6161C17.9424 28.6161 17.3937 28.4866 16.8961 28.2377L14.5382 27.057C13.543 26.5594 12.4456 26.3003 11.3329 26.3003C10.2203 26.3003 9.12285 26.5594 8.12765 27.057L5.85223 28.1965L1.08998 19.8635C0.925597 19.5758 0.827093 19.2552 0.801574 18.9249C0.776055 18.5945 0.824158 18.2626 0.942414 17.9531C1.06067 17.6436 1.24613 17.3641 1.48543 17.135C1.72473 16.9058 2.0119 16.7325 2.32623 16.6278L5.95794 15.4166V9.26758C5.95777 8.4196 6.25833 7.59903 6.80618 6.95178C7.35403 6.30453 8.11367 5.87254 8.95003 5.73262L14.9163 4.74004V2.37504C14.9163 1.89986 15.105 1.44414 15.441 1.10814C15.777 0.772138 16.2328 0.583374 16.7079 0.583374H20.2913ZM18.4996 7.77512L9.54128 9.26758V14.2233L17.3655 11.6147C18.1011 11.3695 18.8964 11.3695 19.6319 11.6147L27.4579 14.2233V9.26758L18.4996 7.77512Z" fill="white"/>
</svg>
